<?xml version="1.0" encoding="UTF-8" standalone="no"?>
<svg
   xmlns:dc="http://purl.org/dc/elements/1.1/"
   xmlns:cc="http://creativecommons.org/ns#"
   xmlns:rdf="http://www.w3.org/1999/02/22-rdf-syntax-ns#"
   xmlns:svg="http://www.w3.org/2000/svg"
   xmlns="http://www.w3.org/2000/svg"
   xmlns:sodipodi="http://sodipodi.sourceforge.net/DTD/sodipodi-0.dtd"
   xmlns:inkscape="http://www.inkscape.org/namespaces/inkscape"
   width="310mm"
   height="434mm"
   viewBox="0 0 310 434"
   version="1.1"
   style="stroke-linecap:round"
   id="svg3105"
   inkscape:version="0.48.0 r9654"
   sodipodi:docname="cone_legend_bw.svg">
  <metadata
     id="metadata3223">
    <rdf:RDF>
      <cc:Work
         rdf:about="">
        <dc:format>image/svg+xml</dc:format>
        <dc:type
           rdf:resource="http://purl.org/dc/dcmitype/StillImage" />
        <dc:title></dc:title>
      </cc:Work>
    </rdf:RDF>
  </metadata>
  <defs
     id="defs3221" />
  <sodipodi:namedview
     pagecolor="#ffffff"
     bordercolor="#666666"
     borderopacity="1"
     objecttolerance="10"
     gridtolerance="10"
     guidetolerance="10"
     inkscape:pageopacity="0"
     inkscape:pageshadow="2"
     inkscape:window-width="1116"
     inkscape:window-height="785"
     id="namedview3219"
     showgrid="false"
     inkscape:zoom="0.18923195"
     inkscape:cx="549.21259"
     inkscape:cy="768.89764"
     inkscape:window-x="0"
     inkscape:window-y="0"
     inkscape:window-maximized="0"
     inkscape:current-layer="svg3105" />
  <path
     d="M100.87,72.87 L100.87,433.13"
     style="stroke:rgb(0,0,0);stroke-width:2;fill:none"
     id="path3107" />
  <path
     d="M210.949,323.051 L210.949,182.949"
     style="stroke:rgb(0,0,0);stroke-width:2;fill:none"
     id="path3109" />
  <path
     d="M100.87,433.13 L210.949,323.051"
     style="stroke:rgb(0,0,0);stroke-width:2;fill:none"
     id="path3111" />
  <path
     d="M210.949,182.949 L100.87,72.87"
     style="stroke:rgb(0,0,0);stroke-width:2;fill:none"
     id="path3113" />
  <path
     d="M0.797834,192.957 L9.13718,192.957"
     style="stroke:rgb(0,0,0);stroke-width:2;fill:none"
     id="path3115" />
  <path
     d="M9.13718,192.957 A5.55957,5.55957 0 0,0 14.6968,187.397 "
     style="stroke:rgb(0,0,0);stroke-width:2;fill:none"
     id="path3117" />
  <path
     d="M14.6968,187.397 L14.6968,173.498"
     style="stroke:rgb(0,0,0);stroke-width:2;fill:none"
     id="path3119" />
  <path
     d="M14.6968,173.498 A5.55957,5.55957 0 0,0 9.13718,167.939 "
     style="stroke:rgb(0,0,0);stroke-width:2;fill:none"
     id="path3121" />
  <path
     d="M9.13718,167.939 L0.797834,167.939"
     style="stroke:rgb(0,0,0);stroke-width:2;fill:none"
     id="path3123" />
  <path
     d="M0.797834,167.939 L0.797834,192.957"
     style="stroke:rgb(0,0,0);stroke-width:2;fill:none"
     id="path3125" />
  <path
     d="M31.1426,169.329 A3.0286,3.0286 0 0,0 26.0487,169.329 "
     style="stroke:rgb(0,0,0);stroke-width:2;fill:none"
     id="path3127" />
  <path
     d="M26.0487,169.328 A13.3585,13.3585 0 0,0 23.6153,174.888 "
     style="stroke:rgb(0,0,0);stroke-width:2;fill:none"
     id="path3129" />
  <path
     d="M23.6153,186.007 A13.3585,13.3585 0 0,0 26.0487,191.567 "
     style="stroke:rgb(0,0,0);stroke-width:2;fill:none"
     id="path3131" />
  <path
     d="M26.0487,191.567 A3.0286,3.0286 0 0,0 31.1426,191.567 "
     style="stroke:rgb(0,0,0);stroke-width:2;fill:none"
     id="path3133" />
  <path
     d="M31.1426,191.567 A13.3585,13.3585 0 0,0 33.576,186.007 "
     style="stroke:rgb(0,0,0);stroke-width:2;fill:none"
     id="path3135" />
  <path
     d="M33.5759,186.008 A26.1431,26.1431 0 0,0 34.1553,180.448 "
     style="stroke:rgb(0,0,0);stroke-width:2;fill:none"
     id="path3137" />
  <path
     d="M34.1553,180.448 A26.1431,26.1431 0 0,0 33.5759,174.887 "
     style="stroke:rgb(0,0,0);stroke-width:2;fill:none"
     id="path3139" />
  <path
     d="M33.576,174.888 A13.3585,13.3585 0 0,0 31.1427,169.329 "
     style="stroke:rgb(0,0,0);stroke-width:2;fill:none"
     id="path3141" />
  <path
     d="M23.036,180.447 A26.1431,26.1431 0 0,0 23.6155,186.008 "
     style="stroke:rgb(0,0,0);stroke-width:2;fill:none"
     id="path3143" />
  <path
     d="M23.6155,174.887 A26.1431,26.1431 0 0,0 23.036,180.448 "
     style="stroke:rgb(0,0,0);stroke-width:2;fill:none"
     id="path3145" />
  <path
     d="M281,283.022 L289.339,283.022"
     style="stroke:rgb(0,0,0);stroke-width:2;fill:none"
     id="path3147" />
  <path
     d="M289.339,283.022 A5.55957,5.55957 0 0,0 294.899,277.462 "
     style="stroke:rgb(0,0,0);stroke-width:2;fill:none"
     id="path3149" />
  <path
     d="M294.899,277.462 L294.899,263.563"
     style="stroke:rgb(0,0,0);stroke-width:2;fill:none"
     id="path3151" />
  <path
     d="M294.899,263.563 A5.55957,5.55957 0 0,0 289.339,258.004 "
     style="stroke:rgb(0,0,0);stroke-width:2;fill:none"
     id="path3153" />
  <path
     d="M289.339,258.004 L281,258.004"
     style="stroke:rgb(0,0,0);stroke-width:2;fill:none"
     id="path3155" />
  <path
     d="M281,258.004 L281,283.022"
     style="stroke:rgb(0,0,0);stroke-width:2;fill:none"
     id="path3157" />
  <path
     d="M303.238,263.563 L308.798,258.004"
     style="stroke:rgb(0,0,0);stroke-width:2;fill:none"
     id="path3159" />
  <path
     d="M308.798,258.004 L308.798,283.022"
     style="stroke:rgb(0,0,0);stroke-width:2;fill:none"
     id="path3161" />
  <path
     d="M100.87,32.8412 L210.949,32.8412"
     style="stroke:rgb(0,0,0);stroke-width:2;fill:none"
     id="path3163" />
  <path
     d="M100.87,32.8412 L125.888,28.6753 L125.888,37.007 Z"
     style="stroke:rgb(0,0,0);stroke-width:2;fill:rgb(0,0,0)"
     id="path3165" />
  <path
     d="M210.949,32.8412 L185.931,37.007 L185.931,28.6753 Z"
     style="stroke:rgb(0,0,0);stroke-width:2;fill:rgb(0,0,0)"
     id="path3167" />
  <path
     d="M139.231,1.56859 L139.231,26.5866"
     style="stroke:rgb(0,0,0);stroke-width:2;fill:none"
     id="path3169" />
  <path
     d="M153.13,26.5866 L153.13,1.56859"
     style="stroke:rgb(0,0,0);stroke-width:2;fill:none"
     id="path3171" />
  <path
     d="M139.231,12.6877 L153.13,12.6877"
     style="stroke:rgb(0,0,0);stroke-width:2;fill:none"
     id="path3173" />
  <path
     d="M169.577,2.95898 A3.02996,3.02996 0 0,0 164.482,2.9572 "
     style="stroke:rgb(0,0,0);stroke-width:2;fill:none"
     id="path3175" />
  <path
     d="M164.485,2.9504 A13.3596,13.3596 0 0,0 162.046,8.51854 "
     style="stroke:rgb(0,0,0);stroke-width:2;fill:none"
     id="path3177" />
  <path
     d="M162.046,19.6367 A13.3596,13.3596 0 0,0 164.485,25.2048 "
     style="stroke:rgb(0,0,0);stroke-width:2;fill:none"
     id="path3179" />
  <path
     d="M164.482,25.198 A3.02996,3.02996 0 0,0 169.576,25.198 "
     style="stroke:rgb(0,0,0);stroke-width:2;fill:none"
     id="path3181" />
  <path
     d="M169.572,25.2048 A13.3596,13.3596 0 0,0 172.011,19.6367 "
     style="stroke:rgb(0,0,0);stroke-width:2;fill:none"
     id="path3183" />
  <path
     d="M172.008,19.644 A26.1439,26.1439 0 0,0 172.588,14.0778 "
     style="stroke:rgb(0,0,0);stroke-width:2;fill:none"
     id="path3185" />
  <path
     d="M172.588,14.0827 A26.1439,26.1439 0 0,0 172.009,8.51567 "
     style="stroke:rgb(0,0,0);stroke-width:2;fill:none"
     id="path3187" />
  <path
     d="M172.01,8.51625 A13.3596,13.3596 0 0,0 169.576,2.956 "
     style="stroke:rgb(0,0,0);stroke-width:2;fill:none"
     id="path3189" />
  <path
     d="M161.469,14.0725 A26.1439,26.1439 0 0,0 162.05,19.644 "
     style="stroke:rgb(0,0,0);stroke-width:2;fill:none"
     id="path3191" />
  <path
     d="M162.05,8.51121 A26.1439,26.1439 0 0,0 161.469,14.0827 "
     style="stroke:rgb(0,0,0);stroke-width:2;fill:none"
     id="path3193" />
  <path
     d="M100.87,66.6155 L100.87,20.3321"
     style="stroke:rgb(0,0,0);stroke-width:2;fill:none"
     id="path3195" />
  <path
     d="M210.949,176.695 L210.949,20.3321"
     style="stroke:rgb(0,0,0);stroke-width:2;fill:none"
     id="path3197" />
  <path
     d="M50.8339,72.87 L50.8339,433.13"
     style="stroke:rgb(0,0,0);stroke-width:2;fill:none"
     id="path3199" />
  <path
     d="M50.8339,72.87 L54.9998,97.8881 L46.6681,97.8881 Z"
     style="stroke:rgb(0,0,0);stroke-width:2;fill:rgb(0,0,0)"
     id="path3201" />
  <path
     d="M50.8339,433.13 L46.6681,408.112 L54.9998,408.112 Z"
     style="stroke:rgb(0,0,0);stroke-width:2;fill:rgb(0,0,0)"
     id="path3203" />
  <path
     d="M94.6155,72.87 L38.3249,72.87"
     style="stroke:rgb(0,0,0);stroke-width:2;fill:none"
     id="path3205" />
  <path
     d="M94.6155,433.13 L38.3249,433.13"
     style="stroke:rgb(0,0,0);stroke-width:2;fill:none"
     id="path3207" />
  <path
     d="M260.986,182.949 L260.986,323.051"
     style="stroke:rgb(0,0,0);stroke-width:2;fill:none"
     id="path3209" />
  <path
     d="M260.986,182.949 L265.151,207.968 L256.82,207.968 Z"
     style="stroke:rgb(0,0,0);stroke-width:2;fill:rgb(0,0,0)"
     id="path3211" />
  <path
     d="M260.986,323.051 L256.82,298.032 L265.151,298.032 Z"
     style="stroke:rgb(0,0,0);stroke-width:2;fill:rgb(0,0,0)"
     id="path3213" />
  <path
     d="M217.204,182.949 L273.495,182.949"
     style="stroke:rgb(0,0,0);stroke-width:2;fill:none"
     id="path3215" />
  <path
     d="M217.204,323.051 L273.495,323.051"
     style="stroke:rgb(0,0,0);stroke-width:2;fill:none"
     id="path3217" />
</svg>
