<?xml version="1.0" encoding="UTF-8" standalone="no"?>
<!DOCTYPE svg PUBLIC "-//W3C//DTD SVG 20001102//EN" "http://www.w3.org/TR/2000/CR-SVG-20001102/DTD/svg-20001102.dtd">
<!-- ************************************************************ -->
<!--   SVG file generated with Cad 2.2.3.0                       -->
<!-- ************************************************************ -->
<svg baseProfile="tiny" height="100%" id="/home/rutger/workspace/cad/doc/dxf_templates/rb_a4follow-0.svg" version="1.2" viewBox="-5 -302 220 307" width="100%" x="0" xmlns="http://www.w3.org/2000/svg" xmlns:xlink="http://www.w3.org/1999/xlink" y="0">
  <script>
    <![CDATA[
    var scale = 1.2; // 1.414213562;
    /* Zoom in or out */
    function zoomInOut(delta, mouseX, mouseY) {
    	var strScale = document.getElementsByTagName('svg')[0].getAttribute('height');
    	var curScale = strScale.replace('%', '').valueOf();
    	var curMouseX = mouseX;
    	var curMouseY = mouseY;
    	var offsetL = (new window.scrollOffset()).x;
    	var offsetT = (new window.scrollOffset()).y;
    	if (delta >= 0) { // zoomIn()
    		if (curScale > 10000) return;
    		curScale *= scale;
    	} else { // zoomOut()
    		if (curScale < 1) return;
    		curScale /= scale;
    	}
    	// zoom
    	document.getElementsByTagName('svg')[0].setAttribute('height', (curScale.toString() + '%'));
    	document.getElementsByTagName('svg')[0].setAttribute('width', (curScale.toString() + '%'));
    	// correct position around mouse point
    	if (delta >= 0) {
    		window.scrollBy((curMouseX+offsetL)*(scale - 1),(curMouseY+offsetT)*(scale - 1));
    	} else {
    		window.scrollBy(-(curMouseX+offsetL)*(scale - 1)/scale,-(curMouseY+offsetT)*(scale - 1)/scale);
    	}
    }
    /* Wheel event for zoom action */
    function wheel(event){
    	var delta = 0;
    	if (!event) event = window.event;
    	if (event.wheelDelta) {
    		delta = event.wheelDelta/120; 
    		if (window.opera) delta = -delta;
    	} else if (event.detail) {
    		delta = -event.detail/3;
    	}
    	if (delta) zoomInOut(delta, event.clientX, event.clientY);
        if (event.preventDefault) event.preventDefault();
        event.returnValue = false;
    }
    /* Initialization code. */
    if (window.addEventListener) {
    	window.addEventListener('DOMMouseScroll', wheel, false);
    }
    window.onmousewheel = document.onmousewheel = wheel;
    /* Current x/y scroll offset of the window
       example use: var vertical_win_scroll = (new window.scrollOffset()).y; */
    window.scrollOffset = function(parent) {
    	this.x = 0;
    	this.y = 0;
    	var doc = parent ? parent.document : document;
    	var win = parent ? parent.window : window;
    	if (doc.documentElement && doc.documentElement.scrollTop) {
    		this.y = doc.documentElement.scrollTop;
    		this.x = doc.documentElement.scrollLeft;
    	} else if (doc.body) {
    		this.y = doc.body.scrollTop;
    		this.x = doc.body.scrollLeft;
    	} else if (win.innerHeight) {
    		this.y = win.pageYOffset;
    		this.x = win.pageXOffset;
    	}
    }]]>
  </script>
  <style type="text/css">
    <![CDATA[
    g.LAYER-0 {opacity:1.0;
    fill:none;
    font-family:helvetica;
    font-stretch:extra-condensed;
    stroke-linecap:round;
    stroke-linejoin:round;
    stroke:rgb(0,0,0);
    stroke-opacity:1.0;
    stroke-width:0.18;
    stroke-dasharray:none;}
    g.LAYER-FRAME025 {opacity:1.0;
    fill:none;
    font-family:helvetica;
    font-stretch:extra-condensed;
    stroke-linecap:round;
    stroke-linejoin:round;
    stroke:rgb(0,0,0);
    stroke-opacity:1.0;
    stroke-width:0.2;
    stroke-dasharray:none;}
    g.LAYER-FRAME035 {opacity:1.0;
    fill:none;
    font-family:helvetica;
    font-stretch:extra-condensed;
    stroke-linecap:round;
    stroke-linejoin:round;
    stroke:rgb(255,255,0);
    stroke-opacity:1.0;
    stroke-width:0.2;
    stroke-dasharray:none;}
    g.LAYER-FRAME050 {opacity:1.0;
    fill:none;
    font-family:helvetica;
    font-stretch:extra-condensed;
    stroke-linecap:round;
    stroke-linejoin:round;
    stroke:rgb(255,0,255);
    stroke-opacity:1.0;
    stroke-width:0.2;
    stroke-dasharray:none;}
    g.LAYER-FRAME070 {opacity:1.0;
    fill:none;
    font-family:helvetica;
    font-stretch:extra-condensed;
    stroke-linecap:round;
    stroke-linejoin:round;
    stroke:rgb(0,0,255);
    stroke-opacity:1.0;
    stroke-width:0.2;
    stroke-dasharray:none;}
    g.LAYER-FRAME100 {opacity:1.0;
    fill:none;
    font-family:helvetica;
    font-stretch:extra-condensed;
    stroke-linecap:round;
    stroke-linejoin:round;
    stroke:rgb(255,0,0);
    stroke-opacity:1.0;
    stroke-width:0.2;
    stroke-dasharray:none;}
    g.LAYER-FRAME140 {opacity:1.0;
    fill:none;
    font-family:helvetica;
    font-stretch:extra-condensed;
    stroke-linecap:round;
    stroke-linejoin:round;
    stroke:rgb(0,255,0);
    stroke-opacity:1.0;
    stroke-width:0.2;
    stroke-dasharray:none;}
    g.LAYER-FRAME200 {opacity:1.0;
    fill:none;
    font-family:helvetica;
    font-stretch:extra-condensed;
    stroke-linecap:round;
    stroke-linejoin:round;
    stroke:rgb(127,127,127);
    stroke-opacity:1.0;
    stroke-width:0.2;
    stroke-dasharray:none;}
    g.LAYER-TB {opacity:1.0;
    fill:none;
    font-family:helvetica;
    font-stretch:extra-condensed;
    stroke-linecap:round;
    stroke-linejoin:round;
    stroke:rgb(0,0,0);
    stroke-opacity:1.0;
    stroke-width:0.2;
    stroke-dasharray:none;}]]>
  </style>
  <defs>
    <marker id="TriangleStart" markerHeight="27" markerUnits="strokeWidth" markerWidth="33" orient="auto" refX="12.5" refY="13.5" stroke="rgb(0,0,0)" stroke-linecap="round" stroke-linejoin="round" stroke-width="inherit" viewBox="0 0 33 27">
      <path d="M 12.5 13.5 l 8 -1 l 0 2 z" />
    </marker>
    <marker id="TriangleEnd" markerHeight="27" markerUnits="strokeWidth" markerWidth="33" orient="auto" refX="20.5" refY="13.5" stroke="rgb(0,0,0)" stroke-linecap="round" stroke-linejoin="round" stroke-width="inherit" viewBox="0 0 33 27">
      <path d="M 20.5 13.5 l -8 -1 l 0 2 z" />
    </marker>
    <g id="BLOCK-rb_borderA4-0">
      <g id="LAYER-0">
        <line x1="0" x2="9.99999999999991" y1="0" y2="-2.84e-14" />
        <line x1="0" x2="-8.53e-14" y1="0" y2="-10.0000000000001" />
        <line x1="210" x2="200" y1="5.68e-14" y2="0" />
        <line x1="210" x2="210" y1="5.68e-14" y2="-10" />
        <line x1="210" x2="210" y1="-287" y2="-297" />
        <line x1="210" x2="200" y1="-297" y2="-297" />
        <line x1="9.99999999999996" x2="-2.84e-14" y1="-297" y2="-297" />
        <line x1="-2.84e-14" x2="-4.26e-14" y1="-297" y2="-287" />
        <line x1="200" x2="200" y1="-10.0000000000001" y2="-287" />
        <line x1="195" x2="205" y1="-148.5" y2="-148.5" />
        <line x1="205" x2="200" y1="-240.5" y2="-240.5" />
        <line x1="205" x2="200" y1="-194.5" y2="-194.5" />
        <line x1="205" x2="200" y1="-102.5" y2="-102.5" />
        <line x1="205" x2="200" y1="-56.5" y2="-56.5" />
        <line x1="150" x2="150" y1="-22" y2="-10" />
        <line x1="20" x2="20" y1="-287" y2="-10" />
        <line x1="15.0000000000001" x2="25.0000000000001" y1="-148.5" y2="-148.5" />
        <line x1="22.5000000000001" x2="22.5000000000001" y1="-151" y2="-146" />
        <line x1="22.5000000000001" x2="17.5000000000001" y1="-146" y2="-148.5" />
        <line x1="17.5000000000001" x2="22.5000000000001" y1="-148.5" y2="-151" />
        <line x1="20.0000000000001" x2="15.0000000000001" y1="-194.5" y2="-194.5" />
        <line x1="20" x2="15" y1="-240.5" y2="-240.5" />
        <line x1="20" x2="15" y1="-102.5" y2="-102.5" />
        <line x1="20" x2="15" y1="-56.5" y2="-56.5" />
        <path d="M 25.7,-17.9 a 0.3,0.3 0 0,0 -0.3,-0.3" />
        <line x1="25.7000000000001" x2="25.7000000000001" y1="-17.3500000000003" y2="-17.9000000000003" />
        <path d="M 25.4,-17.05 a 0.3,0.3 0 0,0 0.3,-0.3" />
        <line x1="25.7000000000001" x2="25.7000000000001" y1="-15.9500000000003" y2="-14.0000000000002" />
        <path d="M 25.7,-15.95 a 0.3,0.3 0 0,0 -0.3,-0.3" />
        <line x1="26.2000000000001" x2="26.2000000000001" y1="-16.6000000000003" y2="-16.6000000000003" />
        <line x1="26.2000000000001" x2="26.2498729349916" y1="-16.6000000000003" y2="-16.6035623524998" />
        <line x1="26.8500000000001" x2="26.8500000000001" y1="-14.0000000000004" y2="-15.9000000000004" />
        <path d="M 26.85,-15.9 a 0.7,0.7 0 0,0 -0.7,-0.7" />
        <path d="M 26.1999,-16.6036 a 0.7,0.7 0 0,0 0.650127,-0.698221" />
        <line x1="26.8500000000001" x2="26.8500000000001" y1="-17.3017834423812" y2="-18.0500000000003" />
        <path d="M 26.85,-18.05 a 1,1 0 0,0 -1,-1" />
        <line x1="25.7000000000001" x2="26.8500000000001" y1="-14.0000000000002" y2="-14.0000000000004" />
        <line x1="30.2000000000001" x2="29.1000000000001" y1="-15.6500000000003" y2="-15.6500000000003" />
        <line x1="28.5500000000001" x2="30.2000000000001" y1="-16.0000000000004" y2="-16.0000000000003" />
        <line x1="28.5500000000001" x2="29.0500000000001" y1="-16.6000000000003" y2="-16.6000000000004" />
        <line x1="28.5500000000001" x2="28.5500000000001" y1="-17.2500000000004" y2="-16.6000000000003" />
        <path d="M 28.8,-17.5 a 0.25,0.25 0 0,0 -0.25,0.25" />
        <line x1="28.8000000000001" x2="28.8000000000001" y1="-17.5000000000004" y2="-17.5000000000004" />
        <line x1="29.0500000000001" x2="29.0500000000001" y1="-16.6000000000004" y2="-17.2500000000003" />
        <path d="M 29.05,-17.25 a 0.25,0.25 0 0,0 -0.25,-0.25" />
        <path d="M 28.65,-18.15 a 1.25,1.25 0 0,0 -1.25,1.25" />
        <line x1="28.9500000000001" x2="28.6500000000001" y1="-18.1500000000004" y2="-18.1500000000003" />
        <line x1="30.2000000000001" x2="30.2000000000001" y1="-16.0000000000003" y2="-16.9000000000004" />
        <path d="M 30.2,-16.9 a 1.25,1.25 0 0,0 -1.25,-1.25" />
        <line x1="28.5500000000001" x2="28.5500000000001" y1="-14.8000000000004" y2="-16.0000000000004" />
        <path d="M 28.55,-14.8 a 0.25,0.25 0 0,0 0.25,0.25" />
        <line x1="28.8500000000001" x2="28.8000000000001" y1="-14.5500000000003" y2="-14.5500000000004" />
        <line x1="29.1000000000001" x2="29.1000000000001" y1="-15.6500000000003" y2="-14.8000000000003" />
        <path d="M 28.85,-14.55 a 0.25,0.25 0 0,0 0.25,-0.25" />
        <line x1="27.4000000000001" x2="27.4000000000001" y1="-16.9000000000004" y2="-15.1500000000003" />
        <path d="M 27.4,-15.15 a 1.25,1.25 0 0,0 1.25,1.25" />
        <line x1="28.6500000000001" x2="28.9500000000001" y1="-13.8999999999998" y2="-13.9000000000001" />
        <line x1="30.2000000000001" x2="30.2000000000001" y1="-15.1500000000003" y2="-15.6500000000003" />
        <path d="M 28.95,-13.9 a 1.25,1.25 0 0,0 1.25,-1.25" />
        <line x1="25.4000000000001" x2="25.2000000000001" y1="-18.2000000000003" y2="-18.2000000000003" />
        <line x1="25.2000000000001" x2="25.4000000000001" y1="-17.0500000000004" y2="-17.0500000000003" />
        <line x1="25.2000000000001" x2="25.2000000000001" y1="-18.2000000000003" y2="-17.0500000000004" />
        <line x1="25.2000000000001" x2="25.4000000000001" y1="-16.2500000000002" y2="-16.2500000000004" />
        <line x1="33.5500000000001" x2="32.3500000000001" y1="-14.0000000000006" y2="-14" />
        <line x1="32.3000000000001" x2="32.3000000000001" y1="-13.8999999999997" y2="-13.8999999999997" />
        <line x1="32.3500000000001" x2="33.5500000000001" y1="-19.0000000000003" y2="-19.0000000000004" />
        <line x1="33.5500000000001" x2="33.5500000000001" y1="-19.0000000000004" y2="-14.0000000000006" />
        <path d="M 32.1,-14.55 a 0.25,0.25 0 0,0 0.25,-0.25" />
        <line x1="32.1000000000001" x2="32.1000000000001" y1="-14.5500000000004" y2="-14.5500000000004" />
        <path d="M 31.85,-14.8 a 0.25,0.25 0 0,0 0.25,0.25" />
        <line x1="31.8500000000001" x2="31.8500000000001" y1="-14.8000000000004" y2="-17.2500000000004" />
        <path d="M 32.1,-17.5 a 0.25,0.25 0 0,0 -0.25,0.25" />
        <line x1="32.3500000000001" x2="32.3500000000001" y1="-17.2500000000003" y2="-14.8000000000002" />
        <line x1="32.1000000000001" x2="32.1000000000001" y1="-17.5000000000003" y2="-17.5000000000003" />
        <path d="M 32.35,-17.25 a 0.25,0.25 0 0,0 -0.25,-0.25" />
        <path d="M 31.45,-18.15 a 0.75,0.75 0 0,0 -0.75,0.75" />
        <line x1="32.3500000000001" x2="32.3500000000001" y1="-17.7500000000003" y2="-19.0000000000003" />
        <line x1="31.4500000000001" x2="31.6022727272728" y1="-18.1500000000004" y2="-18.1500000000004" />
        <path d="M 32.35,-17.75 a 0.898867,0.898867 0 0,0 -0.747727,-0.400003" />
        <line x1="30.7000000000001" x2="30.7000000000001" y1="-14.6500000000003" y2="-17.4000000000004" />
        <path d="M 30.7,-14.65 a 0.75,0.75 0 0,0 0.75,0.75" />
        <line x1="32.3500000000001" x2="32.3500000000001" y1="-14" y2="-14.3500000000002" />
        <line x1="31.5500000000001" x2="31.4500000000001" y1="-13.9000000000005" y2="-13.9000000000007" />
        <path d="M 31.55,-13.9 a 1.19324,1.19324 0 0,0 0.8,-0.45" />
        <line x1="25.8500000000001" x2="24.0000000000001" y1="-19.0500000000003" y2="-19.0500000000003" />
        <line x1="24.0000000000001" x2="24.0000000000001" y1="-19.0500000000003" y2="-13.9999999999999" />
        <line x1="24.0000000000001" x2="25.2000000000001" y1="-13.9999999999999" y2="-14.0000000000005" />
        <line x1="25.2000000000001" x2="25.2000000000001" y1="-14.0000000000005" y2="-16.2500000000002" />
        <path d="M 37.65,-17.95 a 0.3,0.3 0 0,0 -0.3,-0.3" />
        <path d="M 37.65,-16 a 0.3,0.3 0 0,0 -0.3,-0.3" />
        <line x1="37.3500000000001" x2="37.1500000000001" y1="-18.2500000000003" y2="-18.2500000000003" />
        <line x1="37.1500000000001" x2="37.3500000000001" y1="-16.3000000000003" y2="-16.3000000000003" />
        <line x1="37.8000000000001" x2="35.9500000000001" y1="-19.0500000000003" y2="-19.0500000000003" />
        <line x1="35.9500000000001" x2="35.9500000000001" y1="-19.0500000000003" y2="-14.0500000000003" />
        <line x1="38.8000000000001" x2="38.8000000000001" y1="-17.3517834423812" y2="-18.0500000000003" />
        <path d="M 38.8,-18.05 a 1,1 0 0,0 -1,-1" />
        <line x1="37.1500000000001" x2="37.3500000000001" y1="-17.0000000000004" y2="-17.0000000000003" />
        <line x1="37.1500000000001" x2="37.1500000000001" y1="-18.2500000000003" y2="-17.0000000000004" />
        <line x1="37.6500000000001" x2="37.6500000000001" y1="-17.3000000000003" y2="-17.9500000000003" />
        <path d="M 37.35,-17 a 0.3,0.3 0 0,0 0.3,-0.3" />
        <line x1="37.1500000000001" x2="37.1500000000001" y1="-14.8000000000004" y2="-16.3000000000003" />
        <line x1="26.1500000000001" x2="26.1998729349916" y1="-16.6000000000004" y2="-16.6035623524998" />
        <line x1="37.6500000000001" x2="37.6500000000001" y1="-16.0000000000003" y2="-15.1000000000003" />
        <line x1="37.1500000000001" x2="37.3500000000001" y1="-14.8000000000004" y2="-14.8000000000003" />
        <path d="M 37.35,-14.8 a 0.3,0.3 0 0,0 0.3,-0.3" />
        <line x1="38.9000000000001" x2="38.9000000000001" y1="-14.8500000000004" y2="-15.9500000000003" />
        <line x1="35.9500000000001" x2="38.1000000000001" y1="-14.0500000000003" y2="-14.0500000000005" />
        <path d="M 38.1,-14.05 a 0.8,0.8 0 0,0 0.8,-0.8" />
        <path d="M 38.1538,-16.7481 a 0.651813,0.651813 0 0,0 0.646187,-0.60369" />
        <line x1="38.573076923077" x2="38.1538130209149" y1="-16.5384615384619" y2="-16.7480934895429" />
        <path d="M 38.9,-15.95 a 0.700011,0.700011 0 0,0 -0.326923,-0.588462" />
        <line x1="33.9500000000001" x2="33.9500000000001" y1="-16.4500000000004" y2="-15.6500000000004" />
        <line x1="33.9500000000001" x2="35.5000000000001" y1="-15.6500000000004" y2="-15.6500000000004" />
        <line x1="35.5000000000001" x2="35.5000000000001" y1="-15.6500000000004" y2="-16.4500000000003" />
        <line x1="35.5000000000001" x2="33.9500000000001" y1="-16.4500000000003" y2="-16.4500000000004" />
        <line x1="40.9500000000001" x2="42.1000000000001" y1="-14.0000000000004" y2="-14.0000000000002" />
        <line x1="39.3500000000001" x2="40.4500000000001" y1="-16.5500000000004" y2="-16.5500000000004" />
        <path d="M 40.45,-14.8 a 0.25,0.25 0 0,0 0.25,0.25" />
        <line x1="40.9500000000001" x2="40.9500000000001" y1="-14.8000000000003" y2="-16.0500000000004" />
        <line x1="40.7000000000001" x2="40.7000000000001" y1="-14.5500000000003" y2="-14.5500000000003" />
        <path d="M 40.7,-14.55 a 0.25,0.25 0 0,0 0.25,-0.25" />
        <line x1="40.4500000000001" x2="40.4500000000001" y1="-15.4886593988235" y2="-14.8000000000004" />
        <line x1="40.9500000000001" x2="40.5327588170945" y1="-16.0500000000004" y2="-15.6744829353852" />
        <path d="M 40.5328,-15.6745 a 0.25,0.25 0 0,0 -0.0827588,0.185824" />
        <path d="M 39.35,-14.7 a 0.75,0.75 0 0,0 0.75,0.75" />
        <line x1="40.9500000000001" x2="40.9500000000001" y1="-14.4000000000004" y2="-14.0000000000004" />
        <path d="M 40.2523,-13.95 a 0.765912,0.765912 0 0,0 0.697727,-0.450003" />
        <line x1="40.1000000000001" x2="40.2522727272728" y1="-13.9500000000004" y2="-13.9500000000004" />
        <line x1="40.4500000000001" x2="40.4500000000001" y1="-16.5500000000004" y2="-17.2500000000003" />
        <path d="M 40.7,-17.5 a 0.25,0.25 0 0,0 -0.25,0.25" />
        <line x1="40.7000000000001" x2="40.7000000000001" y1="-17.5000000000003" y2="-17.5000000000003" />
        <path d="M 40.95,-17.25 a 0.25,0.25 0 0,0 -0.25,-0.25" />
        <line x1="40.9500000000001" x2="40.9500000000001" y1="-17.2500000000004" y2="-16.7135038936968" />
        <path d="M 40.8002,-16.4845 a 0.25,0.25 0 0,0 0.149795,-0.229039" />
        <line x1="40.800204708505" x2="39.7993858744853" y1="-16.4844645599712" y2="-16.0466063200876" />
        <line x1="39.3500000000001" x2="39.3500000000001" y1="-15.359488318911" y2="-14.7000000000003" />
        <path d="M 39.7994,-16.0466 a 0.75,0.75 0 0,0 -0.449386,0.687118" />
        <line x1="39.3500000000001" x2="39.3500000000001" y1="-17.0500000000003" y2="-16.5500000000004" />
        <path d="M 40.45,-18.15 a 1.1,1.1 0 0,0 -1.1,1.1" />
        <line x1="41.0000000000001" x2="40.4500000000001" y1="-18.1500000000003" y2="-18.1500000000004" />
        <line x1="42.1000000000001" x2="42.1000000000001" y1="-14.0000000000002" y2="-17.0500000000003" />
        <path d="M 42.1,-17.05 a 1.1,1.1 0 0,0 -1.1,-1.1" />
        <line x1="45.4000000000001" x2="44.3000000000001" y1="-18.1500000000003" y2="-18.1500000000004" />
        <line x1="43.7000000000001" x2="42.6000000000001" y1="-14.2500000000004" y2="-14.2500000000004" />
        <path d="M 44,-17.55 a 0.25,0.25 0 0,0 -0.25,0.25" />
        <line x1="44.0000000000001" x2="44.0000000000001" y1="-17.5500000000003" y2="-17.5500000000003" />
        <path d="M 44.25,-17.3 a 0.25,0.25 0 0,0 -0.25,-0.25" />
        <line x1="43.7500000000001" x2="43.7500000000001" y1="-17.3000000000003" y2="-15.4000000000003" />
        <path d="M 43.75,-15.4 a 0.25,0.25 0 0,0 0.25,0.25" />
        <line x1="44.2500000000001" x2="44.2500000000001" y1="-15.4000000000004" y2="-17.3000000000003" />
        <line x1="44.0000000000001" x2="44.0000000000001" y1="-15.1500000000004" y2="-15.1500000000004" />
        <path d="M 44,-15.15 a 0.25,0.25 0 0,0 0.25,-0.25" />
        <path d="M 44.2,-17.8 a 0.898867,0.898867 0 0,0 -0.747727,-0.400003" />
        <line x1="44.3000000000001" x2="44.2000000000001" y1="-18.1500000000004" y2="-17.8000000000003" />
        <line x1="43.4522727272728" x2="43.3500000000001" y1="-18.2000000000003" y2="-18.2000000000003" />
        <path d="M 43.35,-18.2 a 0.75,0.75 0 0,0 -0.75,0.75" />
        <line x1="42.6000000000001" x2="42.6000000000001" y1="-17.4500000000003" y2="-15.2500000000003" />
        <path d="M 42.6,-15.25 a 0.75,0.75 0 0,0 0.75,0.75" />
        <line x1="43.3500000000001" x2="43.5315789473686" y1="-14.5000000000003" y2="-14.5000000000003" />
        <path d="M 43.5316,-14.5 a 0.988201,0.988201 0 0,0 0.718421,-0.3" />
        <line x1="42.6000000000001" x2="42.6000000000001" y1="-14.2500000000004" y2="-14.2000000000004" />
        <path d="M 42.6,-14.2 a 0.9,0.9 0 0,0 0.9,0.9" />
        <line x1="43.5000000000001" x2="44.3000000000001" y1="-13.3000000000004" y2="-13.3000000000003" />
        <line x1="45.4000000000001" x2="45.4000000000001" y1="-14.4000000000003" y2="-18.1500000000003" />
        <path d="M 44.3,-13.3 a 1.1,1.1 0 0,0 1.1,-1.1" />
        <line x1="43.7000000000001" x2="43.7000000000001" y1="-14.2000000000004" y2="-14.2500000000004" />
        <path d="M 43.7,-14.2 a 0.25,0.25 0 0,0 0.25,0.25" />
        <line x1="44.2500000000001" x2="44.2500000000001" y1="-14.8000000000004" y2="-14.2000000000004" />
        <line x1="44.0000000000001" x2="43.9500000000001" y1="-13.9500000000005" y2="-13.9500000000004" />
        <path d="M 44,-13.95 a 0.25,0.25 0 0,0 0.25,-0.25" />
        <line x1="50.0000000000001" x2="50.0000000000001" y1="-21.9999999999999" y2="-9.99999999999991" />
        <line x1="20" x2="200" y1="-22.0000000000001" y2="-22.0000000000001" />
        <line x1="20" x2="200" y1="-10.0000000000001" y2="-10.0000000000001" />
        <line x1="200" x2="20" y1="-287" y2="-287" />
        <line x1="110" x2="110" y1="-10.0000000000001" y2="-5.00000000000006" />
        <line x1="59.9999999999999" x2="160" y1="-5.00000000000006" y2="-5.00000000000006" />
        <line x1="59.9999999999999" x2="59.9999999999998" y1="-5.00000000000006" y2="-10.0000000000001" />
        <line x1="160" x2="160" y1="-5.00000000000006" y2="-10.0000000000001" />
        <line x1="69.9999999999998" x2="69.9999999999998" y1="-5.00000000000006" y2="-10.0000000000001" />
        <line x1="79.9999999999999" x2="79.9999999999999" y1="-5.00000000000006" y2="-10.0000000000001" />
        <line x1="89.9999999999999" x2="89.9999999999999" y1="-5.00000000000006" y2="-10.0000000000001" />
        <line x1="99.9999999999998" x2="99.9999999999998" y1="-5.00000000000006" y2="-10.0000000000001" />
        <line x1="120" x2="120" y1="-5.00000000000006" y2="-10.0000000000001" />
        <line x1="130" x2="130" y1="-5.00000000000006" y2="-10.0000000000001" />
        <line x1="140" x2="140" y1="-5.00000000000006" y2="-10" />
        <line x1="150" x2="150" y1="-5.00000000000003" y2="-10.0000000000001" />
        <line x1="110" x2="107.5" y1="-7.50000000000006" y2="-12.5000000000001" />
        <line x1="107.5" x2="112.5" y1="-12.5000000000001" y2="-12.5000000000001" />
        <line x1="112.5" x2="110" y1="-12.5000000000001" y2="-7.50000000000006" />
        <line x1="110" x2="110" y1="-10.0000000000001" y2="-22" />
        <line x1="125" x2="125" y1="-22" y2="-10" />
        <text fill="rgb(0,0,0)" font-family="courier" font-size="2.7" stroke="none" stroke-dasharray="none" transform="translate(112,-19) rotate(0)">
          <tspan text-anchor="start" x="0" y="0">Issue</tspan>
        </text>
        <text fill="rgb(0,0,0)" font-family="courier" font-size="2.7" stroke="none" stroke-dasharray="none" transform="translate(127,-19) rotate(0)">
          <tspan text-anchor="start" x="0" y="0">Sheet</tspan>
        </text>
        <text fill="rgb(0,0,0)" font-family="courier" font-size="2.7" stroke="none" stroke-dasharray="none" transform="translate(152,-19) rotate(0)">
          <tspan text-anchor="start" x="0" y="0">Doc. No.</tspan>
        </text>
        <line x1="65" x2="65" y1="-287" y2="-292" />
        <line x1="155" x2="155" y1="-287" y2="-292" />
        <line x1="110" x2="110" y1="-282" y2="-292" />
        <text fill="rgb(0,0,0)" font-family="courier" font-size="3.75" stroke="none" stroke-dasharray="none" transform="translate(41.5,-288.5) rotate(0)">
          <tspan text-anchor="start" x="0" y="0">1</tspan>
        </text>
        <text fill="rgb(0,0,0)" font-family="courier" font-size="3.75" stroke="none" stroke-dasharray="none" transform="translate(86.0307,-288.4) rotate(0)">
          <tspan text-anchor="start" x="0" y="0">2</tspan>
        </text>
        <text fill="rgb(0,0,0)" font-family="courier" font-size="3.75" stroke="none" stroke-dasharray="none" transform="translate(131.017,-288.583) rotate(0)">
          <tspan text-anchor="start" x="0" y="0">3</tspan>
        </text>
        <text fill="rgb(0,0,0)" font-family="courier" font-size="3.75" stroke="none" stroke-dasharray="none" transform="translate(175.9,-288.5) rotate(0)">
          <tspan text-anchor="start" x="0" y="0">4</tspan>
        </text>
        <text fill="rgb(0,0,0)" font-family="courier" font-size="3.75" stroke="none" stroke-dasharray="none" transform="translate(201.7,-261.5) rotate(0)">
          <tspan text-anchor="start" x="0" y="0">A</tspan>
        </text>
        <text fill="rgb(0,0,0)" font-family="courier" font-size="3.75" stroke="none" stroke-dasharray="none" transform="translate(201.9,-215.5) rotate(0)">
          <tspan text-anchor="start" x="0" y="0">B</tspan>
        </text>
        <text fill="rgb(0,0,0)" font-family="courier" font-size="3.75" stroke="none" stroke-dasharray="none" transform="translate(202.193,-169.5) rotate(0)">
          <tspan text-anchor="start" x="0" y="0">C</tspan>
        </text>
        <text fill="rgb(0,0,0)" font-family="courier" font-size="3.75" stroke="none" stroke-dasharray="none" transform="translate(201.786,-123.5) rotate(0)">
          <tspan text-anchor="start" x="0" y="0">D</tspan>
        </text>
        <text fill="rgb(0,0,0)" font-family="courier" font-size="3.75" stroke="none" stroke-dasharray="none" transform="translate(202.1,-77.5) rotate(0)">
          <tspan text-anchor="start" x="0" y="0">E</tspan>
        </text>
        <text fill="rgb(0,0,0)" font-family="courier" font-size="3.75" stroke="none" stroke-dasharray="none" transform="translate(202.1,-31.5) rotate(0)">
          <tspan text-anchor="start" x="0" y="0">F</tspan>
        </text>
        <text fill="rgb(0,0,0)" font-family="courier" font-size="3.75" stroke="none" stroke-dasharray="none" transform="translate(175.9,-5.5) rotate(0)">
          <tspan text-anchor="start" x="0" y="0">4</tspan>
        </text>
        <text fill="rgb(0,0,0)" font-family="courier" font-size="3.75" stroke="none" stroke-dasharray="none" transform="translate(41.5,-5.5) rotate(0)">
          <tspan text-anchor="start" x="0" y="0">1</tspan>
        </text>
        <text fill="rgb(0,0,0)" font-family="courier" font-size="3.75" stroke="none" stroke-dasharray="none" transform="translate(15.7,-261.5) rotate(0)">
          <tspan text-anchor="start" x="0" y="0">A</tspan>
        </text>
        <text fill="rgb(0,0,0)" font-family="courier" font-size="3.75" stroke="none" stroke-dasharray="none" transform="translate(15.9,-215.5) rotate(0)">
          <tspan text-anchor="start" x="0" y="0">B</tspan>
        </text>
        <text fill="rgb(0,0,0)" font-family="courier" font-size="3.75" stroke="none" stroke-dasharray="none" transform="translate(16.1932,-169.5) rotate(0)">
          <tspan text-anchor="start" x="0" y="0">C</tspan>
        </text>
        <text fill="rgb(0,0,0)" font-family="courier" font-size="3.75" stroke="none" stroke-dasharray="none" transform="translate(15.7861,-123.5) rotate(0)">
          <tspan text-anchor="start" x="0" y="0">D</tspan>
        </text>
        <text fill="rgb(0,0,0)" font-family="courier" font-size="3.75" stroke="none" stroke-dasharray="none" transform="translate(16.1,-77.5) rotate(0)">
          <tspan text-anchor="start" x="0" y="0">E</tspan>
        </text>
        <text fill="rgb(0,0,0)" font-family="courier" font-size="3.75" stroke="none" stroke-dasharray="none" transform="translate(16.1,-31.5) rotate(0)">
          <tspan text-anchor="start" x="0" y="0">F</tspan>
        </text>
      </g>
    </g>
  </defs>
  <g class="LAYER-0">
    <use transform="translate(0,0) scale(1,1) rotate(0)" xlink:href="#BLOCK-rb_borderA4-0" />
  </g>
  <g class="LAYER-FRAME025">
  </g>
  <g class="LAYER-FRAME035">
  </g>
  <g class="LAYER-FRAME050">
  </g>
  <g class="LAYER-FRAME070">
  </g>
  <g class="LAYER-FRAME100">
  </g>
  <g class="LAYER-FRAME140">
  </g>
  <g class="LAYER-FRAME200">
  </g>
  <g class="LAYER-TB">
  </g>
</svg>
