999
dxflib 2.2.0.0
  0
SECTION
  2
HEADER
  9
$ACADVER
  1
AC1015
  9
$HANDSEED
  5
FFFF
  9
$DIMASZ
 40
2.5
  9
$PLIMMIN
 10
0.0
 20
0.0
  9
$DIMEXE
 40
1.25
  9
$DIMGAP
 40
0.625
  9
$PLIMMAX
 10
210.0
 20
297.0
  9
$PINSBASE
 10
44.999999999999062
 20
108.5
 30
0.0
  9
$INSUNITS
 70
4
  9
$DIMSTYLE
  2
Standard
  9
$CLAYER
  8
FRAME018
  9
$DIMEXO
 40
0.625
  9
$DIMTXT
 40
2.5
  9
$CLAYER
  8
FRAME050
  0
ENDSEC
  0
SECTION
  2
TABLES
  0
TABLE
  2
VPORT
  5
8
100
AcDbSymbolTable
 70
1
  0
VPORT
  5
30
100
AcDbSymbolTableRecord
100
AcDbViewportTableRecord
  2
*Active
 70
0
 10
0.0
 20
0.0
 11
1.0
 21
1.0
 12
286.30555555555549
 22
148.5
 13
0.0
 23
0.0
 14
10.0
 24
10.0
 15
10.0
 25
10.0
 16
0.0
 26
0.0
 36
1.0
 17
0.0
 27
0.0
 37
0.0
 40
297.0
 41
1.92798353909465
 42
50.0
 43
0.0
 44
0.0
 50
0.0
 51
0.0
 71
0
 72
100
 73
1
 74
3
 75
1
 76
1
 77
0
 78
0
281
0
 65
1
110
0.0
120
0.0
130
0.0
111
1.0
121
0.0
131
0.0
112
0.0
122
1.0
132
0.0
 79
0
146
0.0
  0
ENDTAB
  0
TABLE
  2
LTYPE
  5
5
100
AcDbSymbolTable
 70
21
  0
LTYPE
  5
14
100
AcDbSymbolTableRecord
100
AcDbLinetypeTableRecord
  2
ByBlock
 70
0
  3

 72
65
 73
0
 40
0.0
  0
LTYPE
  5
15
100
AcDbSymbolTableRecord
100
AcDbLinetypeTableRecord
  2
ByLayer
 70
0
  3

 72
65
 73
0
 40
0.0
  0
LTYPE
  5
16
100
AcDbSymbolTableRecord
100
AcDbLinetypeTableRecord
  2
CONTINUOUS
 70
0
  3
Solid line
 72
65
 73
0
 40
0.0
  0
LTYPE
  5
31
100
AcDbSymbolTableRecord
100
AcDbLinetypeTableRecord
  2
DOT
 70
0
  3
Dot . . . . . . . . . . . . . . . . . . . . . .
 72
65
 73
2
 40
6.3499999999999996
 49
0.0
 74
0
 49
-6.3499999999999996
 74
0
  0
LTYPE
  5
32
100
AcDbSymbolTableRecord
100
AcDbLinetypeTableRecord
  2
DOT2
 70
0
  3
Dot (.5x) .....................................
 72
65
 73
2
 40
3.1749999999999998
 49
0.0
 74
0
 49
-3.1749999999999998
 74
0
  0
LTYPE
  5
33
100
AcDbSymbolTableRecord
100
AcDbLinetypeTableRecord
  2
DOTX2
 70
0
  3
Dot (2x) .  .  .  .  .  .  .  .  .  .  .  .  .
 72
65
 73
2
 40
12.699999999999999
 49
0.0
 74
0
 49
-12.699999999999999
 74
0
  0
LTYPE
  5
34
100
AcDbSymbolTableRecord
100
AcDbLinetypeTableRecord
  2
DASHED
 70
0
  3
Dashed __ __ __ __ __ __ __ __ __ __ __ __ __ _
 72
65
 73
2
 40
19.050000000000001
 49
12.699999999999999
 74
0
 49
-6.3499999999999996
 74
0
  0
LTYPE
  5
35
100
AcDbSymbolTableRecord
100
AcDbLinetypeTableRecord
  2
DASHED2
 70
0
  3
Dashed (.5x) _ _ _ _ _ _ _ _ _ _ _ _ _ _ _ _ _
 72
65
 73
2
 40
9.5250000000000004
 49
6.3499999999999996
 74
0
 49
-3.1749999999999998
 74
0
  0
LTYPE
  5
36
100
AcDbSymbolTableRecord
100
AcDbLinetypeTableRecord
  2
DASHEDX2
 70
0
  3
Dashed (2x) ____  ____  ____  ____  ____  ___
 72
65
 73
2
 40
38.100000000000001
 49
25.399999999999999
 74
0
 49
-12.699999999999999
 74
0
  0
LTYPE
  5
37
100
AcDbSymbolTableRecord
100
AcDbLinetypeTableRecord
  2
DASHDOT
 70
0
  3
Dash dot __ . __ . __ . __ . __ . __ . __ . __
 72
65
 73
4
 40
25.399999999999999
 49
12.699999999999999
 74
0
 49
-6.3499999999999996
 74
0
 49
0.0
 74
0
 49
-6.3499999999999996
 74
0
  0
LTYPE
  5
38
100
AcDbSymbolTableRecord
100
AcDbLinetypeTableRecord
  2
DASHDOT2
 70
0
  3
Dash dot (.5x) _._._._._._._._._._._._._._._.
 72
65
 73
4
 40
12.699999999999999
 49
6.3499999999999996
 74
0
 49
-3.1749999999999998
 74
0
 49
0.0
 74
0
 49
-3.1749999999999998
 74
0
  0
LTYPE
  5
39
100
AcDbSymbolTableRecord
100
AcDbLinetypeTableRecord
  2
DASHDOTX2
 70
0
  3
Dash dot (2x) ____  .  ____  .  ____  .  ___
 72
65
 73
4
 40
50.799999999999997
 49
25.399999999999999
 74
0
 49
-12.699999999999999
 74
0
 49
0.0
 74
0
 49
-12.699999999999999
 74
0
  0
LTYPE
  5
3A
100
AcDbSymbolTableRecord
100
AcDbLinetypeTableRecord
  2
DIVIDE
 70
0
  3
Divide ____ . . ____ . . ____ . . ____ . . ____
 72
65
 73
6
 40
31.75
 49
12.699999999999999
 74
0
 49
-6.3499999999999996
 74
0
 49
0.0
 74
0
 49
-6.3499999999999996
 74
0
 49
0.0
 74
0
 49
-6.3499999999999996
 74
0
  0
LTYPE
  5
3B
100
AcDbSymbolTableRecord
100
AcDbLinetypeTableRecord
  2
DIVIDE2
 70
0
  3
Divide (.5x) __..__..__..__..__..__..__..__.._
 72
65
 73
6
 40
15.875
 49
6.3499999999999996
 74
0
 49
-3.1749999999999998
 74
0
 49
0.0
 74
0
 49
-3.1749999999999998
 74
0
 49
0.0
 74
0
 49
-3.1749999999999998
 74
0
  0
LTYPE
  5
3C
100
AcDbSymbolTableRecord
100
AcDbLinetypeTableRecord
  2
DIVIDEX2
 70
0
  3
Divide (2x) ________  .  .  ________  .  .  _
 72
65
 73
6
 40
63.5
 49
25.399999999999999
 74
0
 49
-12.699999999999999
 74
0
 49
0.0
 74
0
 49
-12.699999999999999
 74
0
 49
0.0
 74
0
 49
-12.699999999999999
 74
0
  0
LTYPE
  5
3D
100
AcDbSymbolTableRecord
100
AcDbLinetypeTableRecord
  2
CENTER
 70
0
  3
Center ____ _ ____ _ ____ _ ____ _ ____ _ ____
 72
65
 73
4
 40
50.799999999999997
 49
31.75
 74
0
 49
-6.3499999999999996
 74
0
 49
6.3499999999999996
 74
0
 49
-6.3499999999999996
 74
0
  0
LTYPE
  5
3E
100
AcDbSymbolTableRecord
100
AcDbLinetypeTableRecord
  2
CENTER2
 70
0
  3
Center (.5x) ___ _ ___ _ ___ _ ___ _ ___ _ ___
 72
65
 73
4
 40
28.574999999999999
 49
19.050000000000001
 74
0
 49
-3.1749999999999998
 74
0
 49
3.1749999999999998
 74
0
 49
-3.1749999999999998
 74
0
  0
LTYPE
  5
3F
100
AcDbSymbolTableRecord
100
AcDbLinetypeTableRecord
  2
CENTERX2
 70
0
  3
Center (2x) ________  __  ________  __  _____
 72
65
 73
4
 40
101.59999999999999
 49
63.5
 74
0
 49
-12.699999999999999
 74
0
 49
12.699999999999999
 74
0
 49
-12.699999999999999
 74
0
  0
LTYPE
  5
40
100
AcDbSymbolTableRecord
100
AcDbLinetypeTableRecord
  2
BORDER
 70
0
  3
Border __ __ . __ __ . __ __ . __ __ . __ __ .
 72
65
 73
6
 40
44.450000000000003
 49
12.699999999999999
 74
0
 49
-6.3499999999999996
 74
0
 49
12.699999999999999
 74
0
 49
-6.3499999999999996
 74
0
 49
0.0
 74
0
 49
-6.3499999999999996
 74
0
  0
LTYPE
  5
41
100
AcDbSymbolTableRecord
100
AcDbLinetypeTableRecord
  2
BORDER2
 70
0
  3
Border (.5x) __.__.__.__.__.__.__.__.__.__.__.
 72
65
 73
6
 40
22.225000000000001
 49
6.3499999999999996
 74
0
 49
-3.1749999999999998
 74
0
 49
6.3499999999999996
 74
0
 49
-3.1749999999999998
 74
0
 49
0.0
 74
0
 49
-3.1749999999999998
 74
0
  0
LTYPE
  5
42
100
AcDbSymbolTableRecord
100
AcDbLinetypeTableRecord
  2
BORDERX2
 70
0
  3
Border (2x) ____  ____  .  ____  ____  .  ___
 72
65
 73
6
 40
88.900000000000006
 49
25.399999999999999
 74
0
 49
-12.699999999999999
 74
0
 49
25.399999999999999
 74
0
 49
-12.699999999999999
 74
0
 49
0.0
 74
0
 49
-12.699999999999999
 74
0
  0
ENDTAB
  0
TABLE
  2
LAYER
  5
2
100
AcDbSymbolTable
 70
5
  0
LAYER
  5
10
100
AcDbSymbolTableRecord
100
AcDbLayerTableRecord
  2
0
 70
0
 62
7
420
0
  6
CONTINUOUS
370
25
390
F
  0
LAYER
  5
43
100
AcDbSymbolTableRecord
100
AcDbLayerTableRecord
  2
FRAME035
 70
0
 62
7
420
0
  6
CONTINUOUS
370
35
390
F
  0
LAYER
  5
44
100
AcDbSymbolTableRecord
100
AcDbLayerTableRecord
  2
FRAME025
 70
0
 62
7
420
0
  6
CONTINUOUS
370
25
390
F
  0
LAYER
  5
45
100
AcDbSymbolTableRecord
100
AcDbLayerTableRecord
  2
FRAME018
 70
0
 62
7
420
0
  6
CONTINUOUS
370
25
390
F
  0
LAYER
  5
46
100
AcDbSymbolTableRecord
100
AcDbLayerTableRecord
  2
FRAME050
 70
0
 62
7
420
0
  6
DASHDOT
370
50
390
F
  0
ENDTAB
  0
TABLE
  2
STYLE
  5
3
100
AcDbSymbolTable
 70
1
  0
STYLE
  5
11
100
AcDbSymbolTableRecord
100
AcDbTextStyleTableRecord
  2
Standard
 70
0
 40
0.0
 41
0.75
 50
0.0
 71
0
 42
2.5
  3
txt
  4

  0
ENDTAB
  0
TABLE
  2
VIEW
  5
6
100
AcDbSymbolTable
 70
0
  0
ENDTAB
  0
TABLE
  2
UCS
  5
7
100
AcDbSymbolTable
 70
0
  0
ENDTAB
  0
TABLE
  2
APPID
  5
9
100
AcDbSymbolTable
 70
1
  0
APPID
  5
12
100
AcDbSymbolTableRecord
100
AcDbRegAppTableRecord
  2
ACAD
 70
0
  0
ENDTAB
  0
TABLE
  2
DIMSTYLE
  5
A
100
AcDbSymbolTable
 70
1
100
AcDbDimStyleTable
 71
0
  0
DIMSTYLE
105
27
100
AcDbSymbolTableRecord
100
AcDbDimStyleTableRecord
  2
Standard
 41
2.5
 42
0.625
 43
3.75
 44
1.25
 70
0
 73
0
 74
0
 77
1
 78
8
140
2.5
141
2.5
143
0.03937007874016
147
0.625
171
3
172
1
271
2
272
2
274
3
278
44
283
0
284
8
340
11
  0
ENDTAB
  0
TABLE
  2
BLOCK_RECORD
  5
1
100
AcDbSymbolTable
 70
1
  0
BLOCK_RECORD
  5
1F
100
AcDbSymbolTableRecord
100
AcDbBlockTableRecord
  2
*Model_Space
340
22
  0
BLOCK_RECORD
  5
1B
100
AcDbSymbolTableRecord
100
AcDbBlockTableRecord
  2
*Paper_Space
340
1E
  0
BLOCK_RECORD
  5
23
100
AcDbSymbolTableRecord
100
AcDbBlockTableRecord
  2
*Paper_Space0
340
26
  0
ENDTAB
  0
ENDSEC
  0
SECTION
  2
BLOCKS
  0
BLOCK
  5
20
100
AcDbEntity
  8
0
100
AcDbBlockBegin
  2
*Model_Space
 70
0
 10
0.0
 20
0.0
 30
0.0
  3
*Model_Space
  1

  0
ENDBLK
  5
21
100
AcDbEntity
  8
0
100
AcDbBlockEnd
  0
BLOCK
  5
1C
100
AcDbEntity
 67
1
  8
0
100
AcDbBlockBegin
  2
*Paper_Space
 70
0
 10
0.0
 20
0.0
 30
0.0
  3
*Paper_Space
  1

  0
ENDBLK
  5
1D
100
AcDbEntity
 67
1
  8
0
100
AcDbBlockEnd
  0
BLOCK
  5
24
100
AcDbEntity
  8
0
100
AcDbBlockBegin
  2
*Paper_Space0
 70
0
 10
0.0
 20
0.0
 30
0.0
  3
*Paper_Space0
  1

  0
ENDBLK
  5
25
100
AcDbEntity
  8
0
100
AcDbBlockEnd
  0
ENDSEC
  0
SECTION
  2
ENTITIES
  0
LINE
  5
47
100
AcDbEntity
100
AcDbLine
  8
FRAME035
 62
256
370
-1
  6
ByLayer
 10
104.73823168013878
 20
47.045982627484833
 30
0.0
 11
89.738231680138782
 21
70.045982627484847
 31
0.0
  0
LINE
  5
48
100
AcDbEntity
100
AcDbLine
  8
FRAME035
 62
256
370
-1
  6
ByLayer
 10
87.738231680138782
 20
70.045982627484847
 30
0.0
 11
87.738231680138782
 21
45.04598262748484
 31
0.0
  0
LINE
  5
49
100
AcDbEntity
100
AcDbLine
  8
FRAME035
 62
256
370
-1
  6
ByLayer
 10
87.738231680138782
 20
45.04598262748484
 30
0.0
 11
93.738231680138782
 21
31.045982627484825
 31
0.0
  0
LINE
  5
4A
100
AcDbEntity
100
AcDbLine
  8
FRAME035
 62
256
370
-1
  6
ByLayer
 10
104.73823168013878
 20
44.090986518708206
 30
0.0
 11
104.73823168013878
 21
47.045982627484833
 31
0.0
  0
LINE
  5
4B
100
AcDbEntity
100
AcDbLine
  8
FRAME035
 62
256
370
-1
  6
ByLayer
 10
94.738231680138782
 20
31.045982627484833
 30
0.0
 11
104.73823168013878
 21
44.090986518708206
 31
0.0
  0
LINE
  5
4C
100
AcDbEntity
100
AcDbLine
  8
FRAME035
 62
256
370
-1
  6
ByLayer
 10
64.738231680138782
 20
31.045982627484843
 30
0.0
 11
94.738231680138782
 21
31.045982627484833
 31
0.0
  0
LINE
  5
4D
100
AcDbEntity
100
AcDbLine
  8
FRAME035
 62
256
370
-1
  6
ByLayer
 10
64.738231680138782
 20
30.045982627484847
 30
0.0
 11
114.73823168013878
 21
30.045982627484861
 31
0.0
  0
LINE
  5
4E
100
AcDbEntity
100
AcDbLine
  8
FRAME025
 62
256
370
-1
  6
ByLayer
 10
104.73823168013878
 20
44.090986518708206
 30
0.0
 11
106.96274176080614
 21
30.045982627484833
 31
0.0
  0
ARC
  5
4F
100
AcDbEntity
  8
FRAME035
 62
256
370
-1
  6
ByLayer
100
AcDbCircle
 10
64.738231680138725
 20
-69.954017372515139
 30
0.0
 40
100.0
100
AcDbArc
 50
90.0
 51
126.86989764584402
  0
LINE
  5
50
100
AcDbEntity
100
AcDbLine
  8
FRAME035
 62
256
370
-1
  6
ByLayer
 10
24.738231680138782
 20
47.045982627484797
 30
0.0
 11
39.738231680138782
 21
70.045982627484847
 31
0.0
  0
LINE
  5
51
100
AcDbEntity
100
AcDbLine
  8
FRAME035
 62
256
370
-1
  6
ByLayer
 10
41.738231680138782
 20
70.045982627484847
 30
0.0
 11
41.738231680138767
 21
45.045982627484847
 31
0.0
  0
LINE
  5
52
100
AcDbEntity
100
AcDbLine
  8
FRAME035
 62
256
370
-1
  6
ByLayer
 10
41.738231680138767
 20
45.045982627484847
 30
0.0
 11
35.738231680138782
 21
31.045982627484861
 31
0.0
  0
ARC
  5
53
100
AcDbEntity
  8
FRAME035
 62
256
370
-1
  6
ByLayer
100
AcDbCircle
 10
64.738231680138725
 20
-69.954017372515139
 30
0.0
 40
101.0
100
AcDbArc
 50
90.0
 51
107.27928723637356
  0
LINE
  5
54
100
AcDbEntity
100
AcDbLine
  8
FRAME035
 62
256
370
-1
  6
ByLayer
 10
35.738231680138782
 20
31.045982627484861
 30
0.0
 11
35.738231680138774
 21
26.793075607067451
 31
0.0
  0
LINE
  5
55
100
AcDbEntity
100
AcDbLine
  8
FRAME035
 62
256
370
-1
  6
ByLayer
 10
39.738231680138782
 20
70.045982627484847
 30
0.0
 11
89.738231680138782
 21
70.045982627484847
 31
0.0
  0
LINE
  5
56
100
AcDbEntity
100
AcDbLine
  8
FRAME035
 62
256
370
-1
  6
ByLayer
 10
35.738231680138782
 20
31.045982627484861
 30
0.0
 11
64.738231680138782
 21
31.045982627484843
 31
0.0
  0
LINE
  5
57
100
AcDbEntity
100
AcDbLine
  8
FRAME035
 62
256
370
-1
  6
ByLayer
 10
41.738231680138767
 20
45.045982627484847
 30
0.0
 11
87.738231680138782
 21
45.04598262748484
 31
0.0
  0
LINE
  5
58
100
AcDbEntity
100
AcDbLine
  8
FRAME025
 62
256
370
-1
  6
ByLayer
 10
35.738231680138774
 20
26.793075607067451
 30
0.0
 11
35.738231680138782
 21
25.770059955920644
 31
0.0
  0
LINE
  5
59
100
AcDbEntity
100
AcDbLine
  8
FRAME025
 62
256
370
-1
  6
ByLayer
 10
93.738231680138782
 20
31.045982627484825
 30
0.0
 11
93.738231680138767
 21
30.045982627484818
 31
0.0
  0
HATCH
  5
5A
  8
FRAME018
 62
256
370
-1
  6
ByLayer
100
AcDbEntity
100
AcDbHatch
 10
0.0
 20
0.0
 30
0.0
210
0.0
220
0.0
230
1.0
  2
iso03w100
 70
0
 71
0
 91
1
 92
1
 93
7
 72
1
 10
87.738231680138782
 20
70.045982627484847
 11
87.738231680138782
 21
45.04598262748484
 72
1
 10
87.738231680138782
 20
45.04598262748484
 11
93.738231680138782
 21
31.045982627484825
 72
1
 10
93.738231680138782
 20
31.045982627484825
 11
94.738231680138782
 21
31.045982627484833
 72
1
 10
94.738231680138782
 20
31.045982627484833
 11
104.73823168013878
 21
44.090986518708206
 72
1
 10
104.73823168013878
 20
44.090986518708206
 11
104.73823168013878
 21
47.045982627484833
 72
1
 10
104.73823168013878
 20
47.045982627484833
 11
89.738231680138782
 21
70.045982627484847
 72
1
 10
89.738231680138782
 20
70.045982627484847
 11
87.738231680138782
 21
70.045982627484847
 97
0
 75
0
 76
1
 52
0.7853981633974483
 41
0.25
 77
0
 78
1
 53
45.0
 43
0.0
 44
0.0
 45
-0.0883883476483184
 46
0.0883883476483185
 79
0
 98
0
  0
HATCH
  5
5B
  8
FRAME018
 62
256
370
-1
  6
ByLayer
100
AcDbEntity
100
AcDbHatch
 10
0.0
 20
0.0
 30
0.0
210
0.0
220
0.0
230
1.0
  2
iso03w100
 70
0
 71
0
 91
1
 92
1
 93
5
 72
1
 10
93.738231680138767
 20
30.045982627484818
 11
106.96274176080614
 21
30.045982627484833
 72
1
 10
106.96274176080614
 20
30.045982627484833
 11
104.73823168013878
 21
44.090986518708206
 72
1
 10
104.73823168013878
 20
44.090986518708206
 11
94.738231680138782
 21
31.045982627484833
 72
1
 10
94.738231680138782
 20
31.045982627484833
 11
93.738231680138782
 21
31.045982627484825
 72
1
 10
93.738231680138782
 20
31.045982627484825
 11
93.738231680138767
 21
30.045982627484818
 97
0
 75
0
 76
1
 52
2.3561944901923448
 41
0.1
 77
0
 78
1
 53
45.0
 43
0.0
 44
0.0
 45
-0.0883883476483184
 46
0.0883883476483185
 79
0
 98
0
  0
LINE
  5
5C
100
AcDbEntity
100
AcDbLine
  8
FRAME025
 62
256
370
-1
  6
ByLayer
 10
25.752864472573073
 20
32.102355440179238
 30
0.0
 11
22.856064584800464
 21
20.85283302654981
 31
0.0
  0
LINE
  5
5D
100
AcDbEntity
100
AcDbLine
  8
FRAME035
 62
256
370
-1
  6
ByLayer
 10
24.738231680138782
 20
39.891175501550144
 30
0.0
 11
24.738231680138782
 21
47.045982627484797
 31
0.0
  0
LINE
  5
5E
100
AcDbEntity
100
AcDbLine
  8
FRAME035
 62
256
370
-1
  6
ByLayer
 10
34.738231680138782
 20
26.487674856520307
 30
0.0
 11
25.75286447257308
 21
32.102355440179188
 31
0.0
  0
LINE
  5
5F
100
AcDbEntity
100
AcDbLine
  8
FRAME035
 62
256
370
-1
  6
ByLayer
 10
24.738231680138782
 20
39.891175501550144
 30
0.0
 11
25.75286447257308
 21
32.102355440179188
 31
0.0
  0
LINE
  5
60
100
AcDbEntity
100
AcDbLine
  8
FRAME018
 62
256
370
-1
  6
ByLayer
 10
29.741601331885114
 20
23.742058455776672
 30
0.0
 11
29.690984800487893
 21
23.792674987173886
 31
0.0
  0
LINE
  5
61
100
AcDbEntity
100
AcDbLine
  8
FRAME018
 62
256
370
-1
  6
ByLayer
 10
31.490879851460264
 20
24.34984968060877
 30
0.0
 11
30.869519672691503
 21
24.971209859377545
 31
0.0
  0
LINE
  5
62
100
AcDbEntity
100
AcDbLine
  8
FRAME018
 62
256
370
-1
  6
ByLayer
 10
33.242042921573955
 20
24.955614933546059
 30
0.0
 11
32.047983834217007
 21
26.14967402090301
 31
0.0
  0
LINE
  5
63
100
AcDbEntity
100
AcDbLine
  8
FRAME018
 62
256
370
-1
  6
ByLayer
 10
35.019252781818025
 20
25.535474817709233
 30
0.0
 11
33.226518706420634
 21
27.328208893106627
 31
0.0
  0
LINE
  5
64
100
AcDbEntity
100
AcDbLine
  8
FRAME018
 62
256
370
-1
  6
ByLayer
 10
29.741601331885114
 20
23.742058455776672
 30
0.0
 11
29.690984800487879
 21
23.79267498717391
 31
0.0
  0
LINE
  5
65
100
AcDbEntity
100
AcDbLine
  8
FRAME018
 62
256
370
-1
  6
ByLayer
 10
29.690984800487893
 20
23.792674987173886
 30
0.0
 11
26.862557675741712
 21
26.621102111920074
 31
0.0
  0
LINE
  5
66
100
AcDbEntity
100
AcDbLine
  8
FRAME018
 62
256
370
-1
  6
ByLayer
 10
30.86951967269151
 20
24.971209859377499
 30
0.0
 11
28.041092547945322
 21
27.799636984123726
 31
0.0
  0
LINE
  5
67
100
AcDbEntity
100
AcDbLine
  8
FRAME018
 62
256
370
-1
  6
ByLayer
 10
32.047983834217014
 20
26.149674020903017
 30
0.0
 11
29.219556709470819
 21
28.978101145649209
 31
0.0
  0
LINE
  5
68
100
AcDbEntity
100
AcDbLine
  8
FRAME018
 62
256
370
-1
  6
ByLayer
 10
33.226518706420634
 20
27.328208893106627
 30
0.0
 11
32.949044524815747
 21
27.605683074711528
 31
0.0
  0
LINE
  5
69
100
AcDbEntity
100
AcDbLine
  8
FRAME018
 62
256
370
-1
  6
ByLayer
 10
23.095342885653253
 20
20.960320767092082
 30
0.0
 11
22.9034774673272
 21
21.152186185418124
 31
0.0
  0
LINE
  5
6A
100
AcDbEntity
100
AcDbLine
  8
FRAME018
 62
256
370
-1
  6
ByLayer
 10
26.348133854650435
 20
22.421527865553134
 30
0.0
 11
24.505558642012588
 21
24.264103078190963
 31
0.0
  0
LINE
  5
6B
100
AcDbEntity
100
AcDbLine
  8
FRAME018
 62
256
370
-1
  6
ByLayer
 10
27.992427766922063
 20
23.134303697688722
 30
0.0
 11
25.684093514216201
 21
25.442637950394591
 31
0.0
  0
LINE
  5
6C
100
AcDbEntity
100
AcDbLine
  8
FRAME018
 62
256
370
-1
  6
ByLayer
 10
29.69098480048789
 20
23.792674987173918
 30
0.0
 11
26.862557675741698
 21
26.621102111920102
 31
0.0
  0
LINE
  5
6D
100
AcDbEntity
100
AcDbLine
  8
FRAME018
 62
256
370
-1
  6
ByLayer
 10
29.219556709470833
 20
28.978101145649198
 30
0.0
 11
26.665714286659593
 21
31.531943568460424
 31
0.0
  0
LINE
  5
6E
100
AcDbEntity
100
AcDbLine
  8
FRAME018
 62
256
370
-1
  6
ByLayer
 10
30.244552901201999
 20
29.295637002803232
 30
0.0
 11
34.287921340320693
 21
33.339005441921934
 31
0.0
  0
LINE
  5
6F
100
AcDbEntity
100
AcDbLine
  8
FRAME018
 62
256
370
-1
  6
ByLayer
 10
33.871105617021172
 20
27.029515357604289
 30
0.0
 11
35.738231680138782
 21
28.896641420721927
 31
0.0
  0
LINE
  5
70
100
AcDbEntity
100
AcDbLine
  8
FRAME018
 62
256
370
-1
  6
ByLayer
 10
24.738231680138782
 20
41.466985311403619
 30
0.0
 11
25.449086575488835
 21
42.177840206753793
 31
0.0
  0
LINE
  5
71
100
AcDbEntity
100
AcDbLine
  8
FRAME018
 62
256
370
-1
  6
ByLayer
 10
26.618217774193987
 20
31.561622683422744
 30
0.0
 11
31.34176093650693
 21
36.285165845735683
 31
0.0
  0
LINE
  5
72
100
AcDbEntity
100
AcDbLine
  8
FRAME018
 62
256
370
-1
  6
ByLayer
 10
30.244552901201967
 20
29.295637002803247
 30
0.0
 11
34.287921340320679
 21
33.339005441921941
 31
0.0
  0
LINE
  5
73
100
AcDbEntity
100
AcDbLine
  8
FRAME018
 62
256
370
-1
  6
ByLayer
 10
34.287921340320693
 20
33.339005441921934
 30
0.0
 11
38.545731545830151
 21
37.596815647431391
 31
0.0
  0
LINE
  5
74
100
AcDbEntity
100
AcDbLine
  8
FRAME018
 62
256
370
-1
  6
ByLayer
 10
25.325713226788324
 20
47.946787665680802
 30
0.0
 11
29.573993983540561
 21
52.195068422433025
 31
0.0
  0
LINE
  5
75
100
AcDbEntity
100
AcDbLine
  8
FRAME018
 62
256
370
-1
  6
ByLayer
 10
25.449086575488835
 20
42.177840206753793
 30
0.0
 11
32.52015438735431
 21
49.248908018619254
 31
0.0
  0
LINE
  5
76
100
AcDbEntity
100
AcDbLine
  8
FRAME018
 62
256
370
-1
  6
ByLayer
 10
28.395423755997882
 20
39.231503026244624
 30
0.0
 11
35.466491567863358
 21
46.302570838110199
 31
0.0
  0
LINE
  5
77
100
AcDbEntity
100
AcDbLine
  8
FRAME018
 62
256
370
-1
  6
ByLayer
 10
31.34176093650693
 20
36.285165845735683
 30
0.0
 11
38.412828748372405
 21
43.356233657601166
 31
0.0
  0
LINE
  5
78
100
AcDbEntity
100
AcDbLine
  8
FRAME018
 62
256
370
-1
  6
ByLayer
 10
34.287921340320679
 20
33.339005441921955
 30
0.0
 11
38.545731545830165
 21
37.596815647431413
 31
0.0
  0
LINE
  5
79
100
AcDbEntity
100
AcDbLine
  8
FRAME018
 62
256
370
-1
  6
ByLayer
 10
29.573993983540561
 20
52.195068422433025
 30
0.0
 11
36.645061795406036
 21
59.2661362342985
 31
0.0
  0
LINE
  5
7A
100
AcDbEntity
100
AcDbLine
  8
FRAME018
 62
256
370
-1
  6
ByLayer
 10
32.52015438735431
 20
49.248908018619254
 30
0.0
 11
39.591222199219786
 21
56.319975830484736
 31
0.0
  0
LINE
  5
7B
100
AcDbEntity
100
AcDbLine
  8
FRAME018
 62
256
370
-1
  6
ByLayer
 10
35.466491567863358
 20
46.302570838110199
 30
0.0
 11
41.738231680138767
 21
52.574310950385609
 31
0.0
  0
LINE
  5
7C
100
AcDbEntity
100
AcDbLine
  8
FRAME018
 62
256
370
-1
  6
ByLayer
 10
38.412828748372405
 20
43.356233657601166
 30
0.0
 11
41.738231680138767
 21
46.681636589367535
 31
0.0
  0
LINE
  5
7D
100
AcDbEntity
100
AcDbLine
  8
FRAME018
 62
256
370
-1
  6
ByLayer
 10
36.374477653697198
 20
64.888226453607729
 30
0.0
 11
40.769792426762464
 21
69.283541226673009
 31
0.0
  0
LINE
  5
7E
100
AcDbEntity
100
AcDbLine
  8
FRAME018
 62
256
370
-1
  6
ByLayer
 10
36.645061795406036
 20
59.2661362342985
 30
0.0
 11
41.738231680138782
 21
64.359306119031231
 31
0.0
  0
LINE
  5
7F
100
AcDbEntity
100
AcDbLine
  8
FRAME018
 62
256
370
-1
  6
ByLayer
 10
39.591222199219786
 20
56.319975830484736
 30
0.0
 11
41.738231680138782
 21
58.466985311403732
 31
0.0
  0
LINE
  5
80
100
AcDbEntity
100
AcDbLine
  8
FRAME018
 62
256
370
-1
  6
ByLayer
 10
36.37447765369717
 20
64.8882264536077
 30
0.0
 11
40.769792426762478
 21
69.283541226673009
 31
0.0
  0
LINE
  5
81
100
AcDbEntity
100
AcDbLine
  8
FRAME018
 62
256
370
-1
  6
ByLayer
 10
40.769792426762464
 20
69.283541226673009
 30
0.0
 11
41.532233827574309
 21
70.045982627484847
 31
0.0
  0
LINE
  5
82
100
AcDbEntity
100
AcDbLine
  8
FRAME018
 62
256
370
-1
  6
ByLayer
 10
40.769792426762478
 20
69.283541226673009
 30
0.0
 11
41.532233827574316
 21
70.045982627484847
 31
0.0
  0
LINE
  5
83
100
AcDbEntity
100
AcDbLine
  8
FRAME018
 62
256
370
-1
  6
ByLayer
 10
25.235767409226597
 20
36.071846679473438
 30
0.0
 11
28.395423755997882
 21
39.231503026244624
 31
0.0
  0
LINE
  5
84
100
AcDbEntity
100
AcDbLine
  8
FRAME018
 62
256
370
-1
  6
ByLayer
 10
26.862557675741712
 20
26.621102111920074
 30
0.0
 11
24.857682346085099
 21
28.625977441576694
 31
0.0
  0
LINE
  5
85
100
AcDbEntity
100
AcDbLine
  8
FRAME018
 62
256
370
-1
  6
ByLayer
 10
24.721689577799388
 20
21.690902397996926
 30
0.0
 11
23.409711063696435
 21
23.002880912099915
 31
0.0
  0
LINE
  5
86
100
AcDbEntity
100
AcDbLine
  8
FRAME018
 62
256
370
-1
  6
ByLayer
 10
24.505558642012588
 20
24.264103078190999
 30
0.0
 11
23.892377810967865
 21
24.877283909235718
 31
0.0
  0
LINE
  5
87
100
AcDbEntity
100
AcDbLine
  8
FRAME018
 62
256
370
-1
  6
ByLayer
 10
25.684093514216201
 20
25.442637950394627
 30
0.0
 11
24.375044558239303
 21
26.751686906371525
 31
0.0
  0
LINE
  5
88
100
AcDbEntity
100
AcDbLine
  8
FRAME018
 62
256
370
-1
  6
ByLayer
 10
26.862557675741712
 20
26.621102111920145
 30
0.0
 11
24.857682346085113
 21
28.625977441576737
 31
0.0
  0
LINE
  5
89
100
AcDbEntity
100
AcDbLine
  8
FRAME018
 62
256
370
-1
  6
ByLayer
 10
28.041092547945322
 20
27.79963698412368
 30
0.0
 11
25.340349093356537
 21
30.500380438712476
 31
0.0
  0
DIMENSION
  5
8A
100
AcDbEntity
  8
FRAME018
 62
256
370
-1
  6
ByLayer
100
AcDbDimension
 10
74.738231680138782
 20
31.04598262748485
 30
0.0
 11
72.863231680138782
 21
35.00431596081819
 31
0.0
 70
0
 71
5
 72
0
 41
1.0
 42
0.0
  1
Gap1
  3
Standard
100
AcDbAlignedDimension
 13
74.738231680138767
 23
30.045982627484836
 33
0.0
 14
74.738231680138782
 24
31.04598262748485
 34
0.0
 50
90.0
100
AcDbRotatedDimension
  0
DIMENSION
  5
8B
100
AcDbEntity
  8
FRAME018
 62
256
370
-1
  6
ByLayer
100
AcDbDimension
 10
94.738231680138767
 20
20.045982627484822
 30
0.0
 11
98.002120569027653
 21
21.92098262748484
 31
0.0
 70
0
 71
5
 72
0
 41
1.0
 42
0.0
  1
Gap
  3
Standard
100
AcDbAlignedDimension
 13
93.738231680138782
 23
31.045982627484825
 33
0.0
 14
94.738231680138782
 24
31.045982627484833
 34
0.0
 50
0.0
100
AcDbRotatedDimension
  0
DIMENSION
  5
8C
100
AcDbEntity
  8
FRAME018
 62
256
370
-1
  6
ByLayer
100
AcDbDimension
 10
104.73823168013878
 20
44.090986518708206
 30
0.0
 11
60.0
 21
40.0
 31
0.0
 70
2
 71
5
 72
0
 41
1.0
 42
0.0
  1
Alpha2
  3
Standard
100
AcDb2LineAngularDimension
 13
94.738231680138782
 23
31.045982627484833
 33
0.0
 14
64.738231680138782
 24
31.045982627484843
 34
0.0
 15
94.738231680138782
 25
31.045982627484833
 35
0.0
 16
124.73823168013878
 26
40.045982627492194
 36
0.0
  0
DIMENSION
  5
8D
100
AcDbEntity
  8
FRAME018
 62
256
370
-1
  6
ByLayer
100
AcDbDimension
 10
114.73823168013878
 20
31.045982627484847
 30
0.0
 11
112.86323168013878
 21
37.568484573096498
 31
0.0
 70
0
 71
5
 72
0
 41
1.0
 42
0.0
  1
H3
  3
Standard
100
AcDbAlignedDimension
 13
104.73823168013878
 23
44.090986518708206
 33
0.0
 14
106.80435732048159
 24
31.045982627484833
 34
0.0
 50
90.0
100
AcDbRotatedDimension
  0
DIMENSION
  5
8E
100
AcDbEntity
  8
FRAME018
 62
256
370
-1
  6
ByLayer
100
AcDbDimension
 10
31.709982998599695
 20
26.487674856520332
 30
0.0
 11
60.0
 21
40.0
 31
0.0
 70
2
 71
5
 72
0
 41
1.0
 42
0.0
  1
Alpha3
  3
Standard
100
AcDb2LineAngularDimension
 13
34.738231680138782
 23
26.487674856520307
 33
0.0
 14
25.75286447257308
 24
32.102355440179188
 34
0.0
 15
34.738231680138746
 25
26.487674856520336
 35
0.0
 16
14.738231680138782
 26
28.045982627484833
 36
0.0
  0
DIMENSION
  5
8F
100
AcDbEntity
  8
FRAME018
 62
256
370
-1
  6
ByLayer
100
AcDbDimension
 10
106.96274176080614
 20
30.045982627484833
 30
0.0
 11
60.0
 21
40.0
 31
0.0
 70
2
 71
5
 72
0
 41
1.0
 42
0.0
  1
\~
  3
Standard
100
AcDb2LineAngularDimension
 13
104.73823168013878
 23
44.090986518708206
 33
0.0
 14
104.73823168013878
 24
47.045982627484833
 34
0.0
 15
104.73823168013878
 25
44.090986518708206
 35
0.0
 16
104.73823168013877
 26
10.04598262748484
 36
0.0
  0
MTEXT
  5
90
100
AcDbEntity
100
AcDbMText
  8
FRAME018
 62
256
370
-1
  6
ByLayer
 10
110.73823168013877
 20
12.045982627484815
 30
0.0
 40
2.5
 41
100.0
 71
7
 72
2
  1
Alpha1
  7
standard
 50
0.0
 73
0
 44
1.0
  0
SOLID
  5
91
100
AcDbEntity
100
AcDbTrace
  8
FRAME018
 62
256
370
-1
  6
ByLayer
 10
11.738337679820788
 20
14.84581302799365
 30
0.0
 11
13.416343713603439
 21
12.946447695340126
 31
0.0
 12
12.710326346054018
 22
12.505186840621739
 32
0.0
 13
12.710326346054018
 23
12.505186840621739
 33
0.0
 39
0.0
  0
SOLID
  5
92
100
AcDbEntity
100
AcDbTrace
  8
FRAME018
 62
256
370
-1
  6
ByLayer
 10
25.75286447257308
 20
80.045982627484847
 30
0.0
 11
28.25286447257308
 21
80.462267285257695
 31
0.0
 12
28.252864472573087
 22
79.629697969711998
 32
0.0
 13
28.252864472573087
 23
79.629697969711998
 33
0.0
 39
0.0
  0
LINE
  5
93
100
AcDbEntity
100
AcDbLine
  8
FRAME018
 62
256
370
-1
  6
ByLayer
 10
25.75286447257308
 20
32.72735544017921
 30
0.0
 11
25.752864472573087
 21
81.295982627484847
 31
0.0
  0
LINE
  5
94
100
AcDbEntity
100
AcDbLine
  8
FRAME018
 62
256
370
-1
  6
ByLayer
 10
25.75286447257308
 20
80.045982627484847
 30
0.0
 11
74.738231680138782
 21
80.045982627484847
 31
0.0
  0
MTEXT
  5
95
100
AcDbEntity
100
AcDbMText
  8
FRAME018
 62
256
370
-1
  6
ByLayer
 10
56.745548076355938
 20
81.920982627484847
 30
0.0
 40
2.5
 41
30.0
 71
5
 72
2
  1
\U+00f8D21
  7
standard
 50
0.0
 73
0
 44
1.0
  0
SOLID
  5
96
100
AcDbEntity
100
AcDbTrace
  8
FRAME018
 62
256
370
-1
  6
ByLayer
 10
104.73823168013878
 20
90.045982627484847
 30
0.0
 11
102.23823168013878
 21
89.629697969711998
 31
0.0
 12
102.23823168013878
 22
90.462267285257695
 32
0.0
 13
102.23823168013878
 23
90.462267285257695
 33
0.0
 39
0.0
  0
MTEXT
  5
97
100
AcDbEntity
100
AcDbMText
  8
FRAME018
 62
256
370
-1
  6
ByLayer
 10
73.238231680138782
 20
91.920982627484847
 30
0.0
 40
2.5
 41
30.0
 71
5
 72
2
  1
%%cD2
  7
standard
 50
0.0
 73
0
 44
1.0
  0
LINE
  5
98
100
AcDbEntity
100
AcDbLine
  8
FRAME018
 62
256
370
-1
  6
ByLayer
 10
104.73823168013878
 20
47.670982627484882
 30
0.0
 11
104.73823168013878
 21
91.295982627484847
 31
0.0
  0
LINE
  5
99
100
AcDbEntity
100
AcDbLine
  8
FRAME018
 62
256
370
-1
  6
ByLayer
 10
54.738231680138782
 20
90.045982627484847
 30
0.0
 11
104.73823168013878
 21
90.045982627484847
 31
0.0
  0
LINE
  5
9A
100
AcDbEntity
100
AcDbLine
  8
FRAME018
 62
256
370
-1
  6
ByLayer
 10
29.248834964494844
 20
-13.17098262748484
 30
0.0
 11
11.738337679820788
 21
14.84581302799365
 31
0.0
  0
MTEXT
  5
9B
100
AcDbEntity
100
AcDbMText
  8
FRAME018
 62
256
370
-1
  6
ByLayer
 10
27.105099372446503
 20
-5.6729096802073542
 30
0.0
 40
2.5
 41
30.0
 71
5
 72
2
  1
%%cD0
  7
standard
 50
302.00538320808346
 73
0
 44
1.0
  0
LINE
  5
9C
100
AcDbEntity
100
AcDbLine
  8
FRAME050
 62
256
370
-1
  6
ByLayer
 10
64.738231680138782
 20
80.045982627484847
 30
0.0
 11
64.738231680138767
 21
20.045982627484847
 31
0.0
  0
DIMENSION
  5
9D
100
AcDbEntity
  8
FRAME018
 62
256
370
-1
  6
ByLayer
100
AcDbDimension
 10
93.738231680138767
 20
10.045982627484833
 30
0.0
 11
64.738231680138767
 21
11.920982627484843
 31
0.0
 70
0
 71
5
 72
0
 41
1.0
 42
0.0
  1
%%cD3
  3
Standard
100
AcDbAlignedDimension
 13
35.738231680138782
 23
25.770059955920644
 33
0.0
 14
93.738231680138782
 24
18.79598262748484
 34
0.0
 50
0.0
100
AcDbRotatedDimension
  0
LINE
  5
9E
100
AcDbEntity
100
AcDbLine
  8
FRAME018
 62
256
370
-1
  6
ByLayer
 10
25.75286447257308
 20
32.102355440179188
 30
0.0
 11
25.752864472573073
 21
23.21862423268599
 31
0.0
  0
ENDSEC
  0
SECTION
  2
OBJECTS
  0
DICTIONARY
  5
C
100
AcDbDictionary
280
0
281
1
  3
ACAD_GROUP
350
D
  3
ACAD_LAYOUT
350
1A
  3
ACAD_MLINESTYLE
350
17
  3
ACAD_PLOTSETTINGS
350
19
  3
ACAD_PLOTSTYLENAME
350
E
  3
AcDbVariableDictionary
350
9F
  0
DICTIONARY
  5
D
100
AcDbDictionary
280
0
281
1
  0
ACDBDICTIONARYWDFLT
  5
E
100
AcDbDictionary
281
1
  3
Normal
350
F
100
AcDbDictionaryWithDefault
340
F
  0
ACDBPLACEHOLDER
  5
F
  0
DICTIONARY
  5
17
100
AcDbDictionary
280
0
281
1
  3
Standard
350
18
  0
MLINESTYLE
  5
18
100
AcDbMlineStyle
  2
STANDARD
 70
0
  3

 62
256
 51
90.0
 52
90.0
 71
2
 49
0.5
 62
256
  6
BYLAYER
 49
-0.5
 62
256
  6
BYLAYER
  0
DICTIONARY
  5
19
100
AcDbDictionary
280
0
281
1
  0
DICTIONARY
  5
1A
100
AcDbDictionary
281
1
  3
Layout1
350
1E
  3
Layout2
350
26
  3
Model
350
22
  0
LAYOUT
  5
1E
100
AcDbPlotSettings
  1

  2
C:\Program Files\AutoCAD 2002\plotters\DWF ePlot (optimized for plotting).pc3
  4

  6

 40
0.0
 41
0.0
 42
0.0
 43
0.0
 44
0.0
 45
0.0
 46
0.0
 47
0.0
 48
0.0
 49
0.0
140
0.0
141
0.0
142
1.0
143
1.0
 70
688
 72
0
 73
0
 74
5
  7

 75
16
147
1.0
148
0.0
149
0.0
100
AcDbLayout
  1
Layout1
 70
1
 71
1
 10
0.0
 20
0.0
 11
420.0
 21
297.0
 12
0.0
 22
0.0
 32
0.0
 14
100000000000000000000.0
 24
100000000000000000000.0
 34
100000000000000000000.0
 15
-100000000000000000000.0
 25
-100000000000000000000.0
 35
-100000000000000000000.0
146
0.0
 13
0.0
 23
0.0
 33
0.0
 16
1.0
 26
0.0
 36
0.0
 17
0.0
 27
1.0
 37
0.0
 76
0
330
1B
  0
LAYOUT
  5
22
100
AcDbPlotSettings
  1

  2
C:\Program Files\AutoCAD 2002\plotters\DWF ePlot (optimized for plotting).pc3
  4

  6

 40
0.0
 41
0.0
 42
0.0
 43
0.0
 44
0.0
 45
0.0
 46
0.0
 47
0.0
 48
0.0
 49
0.0
140
0.0
141
0.0
142
1.0
143
1.0
 70
1712
 72
0
 73
0
 74
0
  7

 75
0
147
1.0
148
0.0
149
0.0
100
AcDbLayout
  1
Model
 70
1
 71
0
 10
0.0
 20
0.0
 11
12.0
 21
9.0
 12
0.0
 22
0.0
 32
0.0
 14
0.0
 24
0.0
 34
0.0
 15
0.0
 25
0.0
 35
0.0
146
0.0
 13
0.0
 23
0.0
 33
0.0
 16
1.0
 26
0.0
 36
0.0
 17
0.0
 27
1.0
 37
0.0
 76
0
330
1F
  0
LAYOUT
  5
26
100
AcDbPlotSettings
  1

  2
C:\Program Files\AutoCAD 2002\plotters\DWF ePlot (optimized for plotting).pc3
  4

  6

 40
0.0
 41
0.0
 42
0.0
 43
0.0
 44
0.0
 45
0.0
 46
0.0
 47
0.0
 48
0.0
 49
0.0
140
0.0
141
0.0
142
1.0
143
1.0
 70
688
 72
0
 73
0
 74
5
  7

 75
16
147
1.0
148
0.0
149
0.0
100
AcDbLayout
  1
Layout2
 70
1
 71
2
 10
0.0
 20
0.0
 11
12.0
 21
9.0
 12
0.0
 22
0.0
 32
0.0
 14
0.0
 24
0.0
 34
0.0
 15
0.0
 25
0.0
 35
0.0
146
0.0
 13
0.0
 23
0.0
 33
0.0
 16
1.0
 26
0.0
 36
0.0
 17
0.0
 27
1.0
 37
0.0
 76
0
330
23
  0
DICTIONARY
  5
9F
100
AcDbDictionary
281
1
  3
DIMASSOC
350
A1
  3
HIDETEXT
350
A0
  0
DICTIONARYVAR
  5
A0
100
DictionaryVariables
280
0
  1
2
  0
DICTIONARYVAR
  5
A1
100
DictionaryVariables
280
0
  1
1
  0
ENDSEC
  0
EOF
