999
dxflib 2.2.0.0
  0
SECTION
  2
HEADER
  9
$ACADVER
  1
AC1015
  9
$HANDSEED
  5
FFFF
  9
$DIMASZ
 40
2.5
  9
$PLIMMIN
 10
0.0
 20
0.0
  9
$DIMEXE
 40
1.25
  9
$DIMGAP
 40
0.625
  9
$PLIMMAX
 10
210.0
 20
297.0
  9
$INSUNITS
 70
4
  9
$DIMSTYLE
  2
Standard
  9
$DIMEXO
 40
0.625
  9
$DIMTXT
 40
2.5
  0
ENDSEC
  0
SECTION
  2
TABLES
  0
TABLE
  2
VPORT
  5
8
100
AcDbSymbolTable
 70
1
  0
VPORT
  5
30
100
AcDbSymbolTableRecord
100
AcDbViewportTableRecord
  2
*Active
 70
0
 10
0.0
 20
0.0
 11
1.0
 21
1.0
 12
286.3055555555554861
 22
148.5
 13
0.0
 23
0.0
 14
10.0
 24
10.0
 15
10.0
 25
10.0
 16
0.0
 26
0.0
 36
1.0
 17
0.0
 27
0.0
 37
0.0
 40
297.0
 41
1.92798353909465
 42
50.0
 43
0.0
 44
0.0
 50
0.0
 51
0.0
 71
0
 72
100
 73
1
 74
3
 75
1
 76
1
 77
0
 78
0
281
0
 65
1
110
0.0
120
0.0
130
0.0
111
1.0
121
0.0
131
0.0
112
0.0
122
1.0
132
0.0
 79
0
146
0.0
  0
ENDTAB
  0
TABLE
  2
LTYPE
  5
5
100
AcDbSymbolTable
 70
21
  0
LTYPE
  5
14
100
AcDbSymbolTableRecord
100
AcDbLinetypeTableRecord
  2
ByBlock
 70
0
  3

 72
65
 73
0
 40
0.0
  0
LTYPE
  5
15
100
AcDbSymbolTableRecord
100
AcDbLinetypeTableRecord
  2
ByLayer
 70
0
  3

 72
65
 73
0
 40
0.0
  0
LTYPE
  5
16
100
AcDbSymbolTableRecord
100
AcDbLinetypeTableRecord
  2
CONTINUOUS
 70
0
  3
Solid line
 72
65
 73
0
 40
0.0
  0
LTYPE
  5
31
100
AcDbSymbolTableRecord
100
AcDbLinetypeTableRecord
  2
DOT
 70
0
  3
Dot . . . . . . . . . . . . . . . . . . . . . .
 72
65
 73
2
 40
6.3499999999999996
 49
0.0
 74
0
 49
-6.3499999999999996
 74
0
  0
LTYPE
  5
32
100
AcDbSymbolTableRecord
100
AcDbLinetypeTableRecord
  2
DOT2
 70
0
  3
Dot (.5x) .....................................
 72
65
 73
2
 40
3.1749999999999998
 49
0.0
 74
0
 49
-3.1749999999999998
 74
0
  0
LTYPE
  5
33
100
AcDbSymbolTableRecord
100
AcDbLinetypeTableRecord
  2
DOTX2
 70
0
  3
Dot (2x) .  .  .  .  .  .  .  .  .  .  .  .  .
 72
65
 73
2
 40
12.6999999999999993
 49
0.0
 74
0
 49
-12.6999999999999993
 74
0
  0
LTYPE
  5
34
100
AcDbSymbolTableRecord
100
AcDbLinetypeTableRecord
  2
DASHED
 70
0
  3
Dashed __ __ __ __ __ __ __ __ __ __ __ __ __ _
 72
65
 73
2
 40
19.0500000000000007
 49
12.6999999999999993
 74
0
 49
-6.3499999999999996
 74
0
  0
LTYPE
  5
35
100
AcDbSymbolTableRecord
100
AcDbLinetypeTableRecord
  2
DASHED2
 70
0
  3
Dashed (.5x) _ _ _ _ _ _ _ _ _ _ _ _ _ _ _ _ _
 72
65
 73
2
 40
9.5250000000000004
 49
6.3499999999999996
 74
0
 49
-3.1749999999999998
 74
0
  0
LTYPE
  5
36
100
AcDbSymbolTableRecord
100
AcDbLinetypeTableRecord
  2
DASHEDX2
 70
0
  3
Dashed (2x) ____  ____  ____  ____  ____  ___
 72
65
 73
2
 40
38.1000000000000014
 49
25.3999999999999986
 74
0
 49
-12.6999999999999993
 74
0
  0
LTYPE
  5
37
100
AcDbSymbolTableRecord
100
AcDbLinetypeTableRecord
  2
DASHDOT
 70
0
  3
Dash dot __ . __ . __ . __ . __ . __ . __ . __
 72
65
 73
4
 40
25.3999999999999986
 49
12.6999999999999993
 74
0
 49
-6.3499999999999996
 74
0
 49
0.0
 74
0
 49
-6.3499999999999996
 74
0
  0
LTYPE
  5
38
100
AcDbSymbolTableRecord
100
AcDbLinetypeTableRecord
  2
DASHDOT2
 70
0
  3
Dash dot (.5x) _._._._._._._._._._._._._._._.
 72
65
 73
4
 40
12.6999999999999993
 49
6.3499999999999996
 74
0
 49
-3.1749999999999998
 74
0
 49
0.0
 74
0
 49
-3.1749999999999998
 74
0
  0
LTYPE
  5
39
100
AcDbSymbolTableRecord
100
AcDbLinetypeTableRecord
  2
DASHDOTX2
 70
0
  3
Dash dot (2x) ____  .  ____  .  ____  .  ___
 72
65
 73
4
 40
50.7999999999999972
 49
25.3999999999999986
 74
0
 49
-12.6999999999999993
 74
0
 49
0.0
 74
0
 49
-12.6999999999999993
 74
0
  0
LTYPE
  5
3A
100
AcDbSymbolTableRecord
100
AcDbLinetypeTableRecord
  2
DIVIDE
 70
0
  3
Divide ____ . . ____ . . ____ . . ____ . . ____
 72
65
 73
6
 40
31.75
 49
12.6999999999999993
 74
0
 49
-6.3499999999999996
 74
0
 49
0.0
 74
0
 49
-6.3499999999999996
 74
0
 49
0.0
 74
0
 49
-6.3499999999999996
 74
0
  0
LTYPE
  5
3B
100
AcDbSymbolTableRecord
100
AcDbLinetypeTableRecord
  2
DIVIDE2
 70
0
  3
Divide (.5x) __..__..__..__..__..__..__..__.._
 72
65
 73
6
 40
15.875
 49
6.3499999999999996
 74
0
 49
-3.1749999999999998
 74
0
 49
0.0
 74
0
 49
-3.1749999999999998
 74
0
 49
0.0
 74
0
 49
-3.1749999999999998
 74
0
  0
LTYPE
  5
3C
100
AcDbSymbolTableRecord
100
AcDbLinetypeTableRecord
  2
DIVIDEX2
 70
0
  3
Divide (2x) ________  .  .  ________  .  .  _
 72
65
 73
6
 40
63.5
 49
25.3999999999999986
 74
0
 49
-12.6999999999999993
 74
0
 49
0.0
 74
0
 49
-12.6999999999999993
 74
0
 49
0.0
 74
0
 49
-12.6999999999999993
 74
0
  0
LTYPE
  5
3D
100
AcDbSymbolTableRecord
100
AcDbLinetypeTableRecord
  2
CENTER
 70
0
  3
Center ____ _ ____ _ ____ _ ____ _ ____ _ ____
 72
65
 73
4
 40
50.7999999999999972
 49
31.75
 74
0
 49
-6.3499999999999996
 74
0
 49
6.3499999999999996
 74
0
 49
-6.3499999999999996
 74
0
  0
LTYPE
  5
3E
100
AcDbSymbolTableRecord
100
AcDbLinetypeTableRecord
  2
CENTER2
 70
0
  3
Center (.5x) ___ _ ___ _ ___ _ ___ _ ___ _ ___
 72
65
 73
4
 40
28.5749999999999993
 49
19.0500000000000007
 74
0
 49
-3.1749999999999998
 74
0
 49
3.1749999999999998
 74
0
 49
-3.1749999999999998
 74
0
  0
LTYPE
  5
3F
100
AcDbSymbolTableRecord
100
AcDbLinetypeTableRecord
  2
CENTERX2
 70
0
  3
Center (2x) ________  __  ________  __  _____
 72
65
 73
4
 40
101.5999999999999943
 49
63.5
 74
0
 49
-12.6999999999999993
 74
0
 49
12.6999999999999993
 74
0
 49
-12.6999999999999993
 74
0
  0
LTYPE
  5
40
100
AcDbSymbolTableRecord
100
AcDbLinetypeTableRecord
  2
BORDER
 70
0
  3
Border __ __ . __ __ . __ __ . __ __ . __ __ .
 72
65
 73
6
 40
44.4500000000000028
 49
12.6999999999999993
 74
0
 49
-6.3499999999999996
 74
0
 49
12.6999999999999993
 74
0
 49
-6.3499999999999996
 74
0
 49
0.0
 74
0
 49
-6.3499999999999996
 74
0
  0
LTYPE
  5
41
100
AcDbSymbolTableRecord
100
AcDbLinetypeTableRecord
  2
BORDER2
 70
0
  3
Border (.5x) __.__.__.__.__.__.__.__.__.__.__.
 72
65
 73
6
 40
22.2250000000000014
 49
6.3499999999999996
 74
0
 49
-3.1749999999999998
 74
0
 49
6.3499999999999996
 74
0
 49
-3.1749999999999998
 74
0
 49
0.0
 74
0
 49
-3.1749999999999998
 74
0
  0
LTYPE
  5
42
100
AcDbSymbolTableRecord
100
AcDbLinetypeTableRecord
  2
BORDERX2
 70
0
  3
Border (2x) ____  ____  .  ____  ____  .  ___
 72
65
 73
6
 40
88.9000000000000057
 49
25.3999999999999986
 74
0
 49
-12.6999999999999993
 74
0
 49
25.3999999999999986
 74
0
 49
-12.6999999999999993
 74
0
 49
0.0
 74
0
 49
-12.6999999999999993
 74
0
  0
ENDTAB
  0
TABLE
  2
LAYER
  5
2
100
AcDbSymbolTable
 70
2
  0
LAYER
  5
10
100
AcDbSymbolTableRecord
100
AcDbLayerTableRecord
  2
0
 70
0
 62
7
420
16777215
  6
CONTINUOUS
370
0
390
F
  0
LAYER
  5
43
100
AcDbSymbolTableRecord
100
AcDbLayerTableRecord
  2
contour
 70
0
 62
7
420
16777215
  6
CONTINUOUS
370
35
390
F
  0
ENDTAB
  0
TABLE
  2
STYLE
  5
3
100
AcDbSymbolTable
 70
1
  0
STYLE
  5
11
100
AcDbSymbolTableRecord
100
AcDbTextStyleTableRecord
  2
Standard
 70
0
 40
0.0
 41
0.75
 50
0.0
 71
0
 42
2.5
  3
txt
  4

  0
ENDTAB
  0
TABLE
  2
VIEW
  5
6
100
AcDbSymbolTable
 70
0
  0
ENDTAB
  0
TABLE
  2
UCS
  5
7
100
AcDbSymbolTable
 70
0
  0
ENDTAB
  0
TABLE
  2
APPID
  5
9
100
AcDbSymbolTable
 70
1
  0
APPID
  5
12
100
AcDbSymbolTableRecord
100
AcDbRegAppTableRecord
  2
ACAD
 70
0
  0
ENDTAB
  0
TABLE
  2
DIMSTYLE
  5
A
100
AcDbSymbolTable
 70
1
100
AcDbDimStyleTable
 71
0
  0
DIMSTYLE
105
27
100
AcDbSymbolTableRecord
100
AcDbDimStyleTableRecord
  2
Standard
 41
2.5
 42
0.625
 43
3.75
 44
1.25
 70
0
 73
0
 74
0
 77
1
 78
8
140
2.5
141
2.5
143
0.03937007874016
147
0.625
171
3
172
1
271
2
272
2
274
3
278
44
283
0
284
8
340
11
  0
ENDTAB
  0
TABLE
  2
BLOCK_RECORD
  5
1
100
AcDbSymbolTable
 70
1
  0
BLOCK_RECORD
  5
1F
100
AcDbSymbolTableRecord
100
AcDbBlockTableRecord
  2
*Model_Space
340
22
  0
BLOCK_RECORD
  5
1B
100
AcDbSymbolTableRecord
100
AcDbBlockTableRecord
  2
*Paper_Space
340
1E
  0
BLOCK_RECORD
  5
23
100
AcDbSymbolTableRecord
100
AcDbBlockTableRecord
  2
*Paper_Space0
340
26
  0
ENDTAB
  0
ENDSEC
  0
SECTION
  2
BLOCKS
  0
BLOCK
  5
20
100
AcDbEntity
  8
0
100
AcDbBlockBegin
  2
*Model_Space
 70
0
 10
0.0
 20
0.0
 30
0.0
  3
*Model_Space
  1

  0
ENDBLK
  5
21
100
AcDbEntity
  8
0
100
AcDbBlockEnd
  0
BLOCK
  5
1C
100
AcDbEntity
 67
1
  8
0
100
AcDbBlockBegin
  2
*Paper_Space
 70
0
 10
0.0
 20
0.0
 30
0.0
  3
*Paper_Space
  1

  0
ENDBLK
  5
1D
100
AcDbEntity
 67
1
  8
0
100
AcDbBlockEnd
  0
BLOCK
  5
24
100
AcDbEntity
  8
0
100
AcDbBlockBegin
  2
*Paper_Space0
 70
0
 10
0.0
 20
0.0
 30
0.0
  3
*Paper_Space0
  1

  0
ENDBLK
  5
25
100
AcDbEntity
  8
0
100
AcDbBlockEnd
  0
ENDSEC
  0
SECTION
  2
ENTITIES
  0
IMAGE
  5
44
  8
0
 62
256
370
-1
  6
ByLayer
100
AcDbEntity
100
AcDbRasterImage
 90
0
 10
-262.4946368953187061
 20
67.6532569317831758
 30
0.0
 11
1.0
 21
0.0
 31
0.0
 12
0.0000000000000001
 22
1.0
 32
0.0
 13
300.0
 23
202.0
340
45
 70
15
280
0
281
50
282
50
283
0
  0
LWPOLYLINE
  5
46
  8
contour
 62
7
420
16777215
370
35
  6
CONTINUOUS
100
AcDbEntity
100
AcDbPolyline
 90
438
 70
0
 10
150.6747611464967349
 20
238.2384554140126056
 10
151.4510350318470557
 20
237.3845541401272499
 10
152.1496815286623416
 20
236.7635350318469989
 10
153.0812101910827039
 20
237.3069267515922149
 10
153.7798566878979898
 20
238.0832006369425358
 10
158.4374999999999147
 20
237.5398089171973197
 10
159.7571656050954516
 20
236.4530254777068592
 10
159.9124203821655215
 20
234.3570859872610015
 10
158.6703821656049911
 20
234.0465764331208902
 10
158.9808917197451308
 20
232.1835191082801089
 10
161.6202229299362045
 20
232.1058917197450739
 10
162.6293789808916301
 20
231.2519904458597466
 10
164.9582006369425926
 20
231.7953821656049627
 10
167.1317675159234568
 20
232.3387738853501787
 10
168.8395700636941683
 20
232.3387738853501787
 10
169.6158439490444891
 20
232.3387738853501787
 10
170.8578821656049911
 20
231.484872611464823
 10
171.6341560509553119
 20
231.5624999999998579
 10
172.177547770700528
 20
232.0282643312100674
 10
172.5656847133757026
 20
232.4164012738852136
 10
172.9538216560508488
 20
232.5716560509552835
 10
174.8168789808916301
 20
234.5899681528661063
 10
174.5839968152865254
 20
235.3662420382164271
 10
173.3419585987260234
 20
235.2109872611463572
 10
172.7209394904457724
 20
235.6767515923565384
 10
172.5656847133757026
 20
236.8411624203820338
 10
173.0314490445858837
 20
237.7726910828023961
 10
173.9629777070062744
 20
238.1608280254775707
 10
177.1457006369425642
 20
236.608280254776929
 10
178.542993630573136
 20
238.0055732484075008
 10
178.6206210191081709
 20
238.8594745222928566
 10
178.2324840764330247
 20
240.4896496815285332
 10
179.164012738853387
 20
241.9645700636941399
 10
181.2599522292992447
 20
242.6632165605094258
 10
182.4243630573247401
 20
244.83678343949029
 10
184.1321656050954232
 20
246.9327229299361477
 10
186.6938694267514904
 20
246.0788216560508204
 10
189.7989649681527453
 20
246.8550955414011412
 10
191.894904458598603
 20
246.8550955414011412
 10
191.7396496815285616
 20
245.4578025477705694
 10
191.1186305732482822
 20
244.6039012738852136
 10
191.1186305732482822
 20
243.4394904458597182
 10
190.4976114649680312
 20
242.0421974522291464
 10
191.8172770700635681
 20
241.4211783439488954
 10
193.3698248407642097
 20
241.9645700636941399
 10
194.2237261146495655
 20
243.051353503184572
 10
196.3196656050954232
 20
243.2842356687896768
 10
197.716958598725995
 20
243.8276273885348928
 10
198.4156050955412809
 20
245.0696656050953948
 10
199.5800159235667763
 20
245.7683121019106807
 10
202.4522292993629264
 20
246.1564490445858553
 10
204.2376592356686729
 20
245.9235668789807505
 10
205.0915605095540286
 20
244.3710191082801089
 10
205.9454617834393844
 20
242.9737261146495371
 10
210.0597133757960648
 20
242.5855891719743909
 10
213.6305732484075293
 20
242.8960987261145021
 10
215.105493630573136
 20
243.2066082802546418
 10
216.4251592356686729
 20
244.5262738853501787
 10
220.6170382165603883
 20
246.8550955414011412
 10
222.5577229299361761
 20
247.7089968152864685
 10
225.1970541401272499
 20
249.4944267515922149
 10
227.9140127388533585
 20
249.8049363057323262
 10
230.0875796178342512
 20
248.3300159235667479
 10
233.3479299363056043
 20
244.6815286624202486
 10
240.4120222929934982
 20
245.0696656050953948
 10
240.4896496815285332
 20
246.5445859872610015
 10
240.2567675159234284
 20
247.7089968152864685
 10
241.886942675159105
 20
248.4076433121017544
 10
243.2842356687896768
 20
250.5035828025476121
 10
238.9371019108278915
 20
251.5127388535030377
 10
236.9964171974521037
 20
252.4442675159234284
 10
237.3845541401272499
 20
255.4717356687896483
 10
240.2567675159234284
 20
260.9056528662418941
 10
241.4988057324839303
 20
262.9239649681526885
 10
245.6906847133756457
 20
264.3212579617832603
 10
247.0103503184711826
 20
266.1066878980890351
 10
250.9693471337578217
 20
267.1158439490444039
 10
253.3757961783437906
 20
266.7277070063692577
 10
254.2296974522291464
 20
265.6409235668788256
 10
256.1703821656049627
 20
264.3988853503183236
 10
257.7229299363056043
 20
263.6226114649679744
 10
258.0334394904456872
 20
260.8280254777068308
 10
258.0334394904456872
 20
259.1202229299361761
 10
259.3531050955412525
 20
257.0242834394903184
 10
260.3622611464966781
 20
259.1202229299361761
 10
261.9148089171973197
 20
260.7503980891718243
 10
264.4765127388533301
 20
258.5768312101909601
 10
267.7368630573246833
 20
256.8690286624202486
 10
266.3395700636941115
 20
255.859872611464823
 10
267.0382165605093974
 20
254.2296974522291464
 10
269.1341560509552551
 20
253.1429140127387143
 10
271.4629777070061891
 20
253.9968152866240416
 10
273.4036624203820338
 20
255.238853503184572
 10
277.9937237822940688
 20
255.739633033317773
 10
282.3715777001254992
 20
254.5722053218960639
 10
285.2901469786797293
 20
253.6236703063659377
 10
289.3761439686556969
 20
252.748099522799663
 10
294.4106759741618475
 20
250.3402798679923649
 10
296.161817541294397
 20
248.2243171410405296
 10
299.6641006755594958
 20
247.6406032853296892
 10
301.7800634025113595
 20
245.8164974862332599
 10
301.6341349385836565
 20
242.9708924396428529
 10
304.5527042171378866
 20
241.0738224085825721
 10
307.3983092637283221
 20
239.3226808414500226
 10
309.3683435267524828
 20
238.1552531300283135
 10
311.4843062537042897
 20
239.5415735373415771
 10
313.5273047486923019
 20
238.8848954496668853
 10
316.5188382592104404
 20
239.1767523775222912
 10
317.7592302025959725
 20
237.8633962021728792
 10
319.2814490445858269
 20
237.5398089171973197
 10
319.4367038216558399
 20
235.2109872611463572
 10
318.5051751592354776
 20
232.8821656050953948
 10
319.126194267515757
 20
229.699442675159105
 10
319.126194267515757
 20
226.9824840764329963
 10
316.5644904458596898
 20
225.3523089171973197
 10
314.9343152866240416
 20
223.0234872611463572
 10
314.7014331210189084
 20
221.0051751592355345
 10
313.1488853503182668
 20
218.9868630573247117
 10
312.9936305732481969
 20
216.9685509554138889
 10
310.8200636942673327
 20
215.648885350318352
 10
310.1214171974520468
 20
213.2424363057323546
 10
308.4912420382163987
 20
210.1373407643310998
 10
308.5688694267514052
 20
207.6532643312100674
 10
310.5871815286622564
 20
205.24681528662407
 10
310.4319267515921865
 20
199.5023885350317414
 10
312.3726114649679744
 20
197.8722133757960648
 10
318.1946656050953379
 20
198.1827229299361761
 10
321.8431528662418373
 20
197.8722133757960648
 10
325.5692675159234
 20
196.2420382165603883
 10
330.1492834394902616
 20
195.2328821656049911
 10
333.5673869044585444
 20
194.4340414777069554
 10
333.2468031592355828
 20
188.4230962547770218
 10
338.6165808917197069
 20
185.938572229299325
 10
343.9062126878980052
 20
182.8930266496815022
 10
346.3105907770699901
 20
179.286459515923525
 10
351.5200766369426333
 20
180.1680648152865842
 10
355.8479571974521605
 20
181.530545732484029
 10
356.4891246878980269
 20
186.9804694012738366
 10
360.9772971210190349
 20
187.7017828280254435
 10
361.4581727388534205
 20
191.0679121528661994
 10
363.0610914649680581
 20
193.7928739872611175
 10
366.5073667261145829
 20
194.4340414777069554
 10
368.7514529426750869
 20
192.1098093248407395
 10
372.0374363312101309
 20
189.4649934267515619
 10
373.3197713121018637
 20
188.4230962547770218
 10
374.3616684840763469
 20
186.8201775286623842
 10
373.0793335031846709
 20
182.8128807133757618
 10
372.1977282038216117
 20
177.603394853503147
 10
370.2742257324840125
 20
173.3556602292993318
 10
371.4764147770699765
 20
170.871136203821635
 10
368.7514529426750869
 20
169.1880715414012286
 10
369.3124744968152413
 20
166.6234015796177914
 10
367.5492638980891229
 20
164.6998991082802206
 10
369.4727663694266653
 20
160.6124563566878578
 10
372.8388956942674213
 20
160.5323104203821458
 10
374.5219603566878277
 20
158.2882242038216134
 10
374.6822522292993085
 20
152.3574249171974202
 10
372.8388956942674213
 20
150.8346521273884946
 10
369.5529123057324341
 20
150.5942143184713018
 10
366.7478045350317757
 20
151.0750899363057158
 10
362.6603617834394413
 20
150.5140683821655898
 10
361.0574430573247469
 20
152.4375708535031606
 10
358.0920434140126645
 20
154.1206355159235386
 10
358.1721893503183765
 20
159.5705591847133462
 10
354.6457681528661965
 20
157.8874945222929682
 10
352.3215359999999237
 20
157.8874945222929682
 10
350.2377416560509005
 20
155.8037001783439166
 10
348.7951148025476868
 20
155.5632623694267238
 10
348.7951148025476868
 20
153.719905834394865
 10
346.0701529681527973
 20
150.4339224458598494
 10
346.7914663949043756
 20
145.7053122038216202
 10
346.8716123312101445
 20
140.4958263439490054
 10
350.8789091464967669
 20
141.2171397707006122
 10
353.9244547261145613
 20
138.4120319999999822
 10
353.4435791082801757
 20
135.286340484076419
 10
350.6384713375795741
 20
131.9202111592356346
 10
352.7222656815285973
 20
128.5540818343948786
 10
354.6457681528661965
 20
124.46663908280253
 10
352.1612441273884428
 20
120.4593422675159076
 10
345.8297151592356045
 20
120.860071949044567
 10
345.26869360509545
 20
122.3828447388534784
 10
345.26869360509545
 20
125.2680984458598488
 10
342.6238777070063293
 20
125.9894118726114414
 10
341.5819805350317893
 20
127.5923305987260932
 10
341.2613967898088276
 20
129.9165627515923234
 10
341.5018345987260773
 20
131.5194814777069894
 10
337.9754134012738405
 20
134.244443312101879
 10
334.2887003312101228
 20
132.9621083312101746
 10
330.1211116433120196
 20
130.878313987261123
 10
325.7130851464967805
 20
130.7981680509553826
 10
325.4726473375795308
 20
125.9894118726114414
 10
322.2668098853502556
 20
125.2680984458598488
 10
316.4161565350318028
 20
124.8673687643311894
 10
311.6875462929935452
 20
127.832768407643286
 10
309.4434600764330412
 20
132.2407949044585678
 10
306.9589360509553444
 20
133.9238595668789458
 10
306.7986441783438636
 20
138.2517401273885014
 10
305.9971848152865732
 20
139.8546588535031674
 10
306.8787901146496324
 20
145.0641447133757822
 10
303.2722229808916836
 20
141.6980153885349978
 10
299.3450721019107732
 20
145.6251662675159082
 10
296.299526522292922
 20
143.621517859872597
 10
295.017191541401246
 20
140.5759722802547458
 10
294.1355862420381868
 20
137.9311563821655682
 10
295.097337477706958
 20
134.805464866242005
 10
296.21938058598721
 20
130.5577302420381898
 10
296.139234649681498
 20
126.9511631082802268
 10
294.4561699872610916
 20
124.1460553375795968
 10
293.5745646878980324
 20
119.2571532229299152
 10
291.2503325350318164
 20
117.4137966878980706
 10
290.1282894267515644
 20
114.1278132993630408
 10
287.0827438471337132
 20
112.2043108280254557
 10
283.6364685859871884
 20
108.4374518216560261
 10
283.3158848407642836
 20
104.3500090700636775
 10
280.751214878980818
 20
102.8272362802547519
 10
279.0681502165604684
 20
101.7051931719744999
 10
275.8960021133331679
 20
98.5929184411613733
 10
274.7103333439205244
 20
92.755779884052842
 10
272.6126116749596235
 20
91.4789058246853415
 10
272.5214063850048092
 20
94.4886803931944286
 10
273.6158698644626384
 20
97.4072496717487013
 10
270.0588635562246509
 20
94.3974751032396142
 10
271.6093534854566087
 20
89.7460053155437549
 10
276.2608232731524822
 20
90.6580582150919554
 10
277.7201079124295688
 20
96.7688126420649581
 10
280.9122930608482989
 20
97.7720708315679872
 10
285.2393873121018828
 20
98.7397935286624033
 10
282.5144254777069364
 20
97.4574585477706847
 10
280.1100473885349516
 20
96.8964369936305587
 10
279.1482961528661804
 20
94.4920589044585739
 10
281.0717986242037796
 20
91.8472430063694105
 10
282.995301095541322
 20
89.6031567898089065
 10
283.5563226496814764
 20
87.5193624458598549
 10
282.1136957961782628
 20
85.0348384203821439
 10
280.751214878980818
 20
80.3062281783439289
 10
277.224793681528638
 20
80.7069578598726025
 10
274.9807074649680771
 20
81.5084172229299213
 10
272.896913121019054
 20
81.2679794140127285
 10
271.6145781401273211
 20
81.2679794140127285
 10
273.3777887388534396
 20
85.1149843566878843
 10
271.69472407643309
 20
88.0803839999999809
 10
269.8513675414012027
 20
90.6450539617834181
 10
268.6491784968152388
 20
94.6523507770700405
 10
263.4396926369426524
 20
97.8581882292993441
 10
265.9242166624203492
 20
100.8235878726114407
 10
267.0462597707006012
 20
104.1897171974522109
 10
262.9588170191082099
 20
105.4720521783439295
 10
260.7147308025477059
 20
105.5521981146496557
 10
262.124003330155233
 20
107.895858016553106
 10
265.7722149283480348
 20
110.1759902654236214
 10
268.4171683370378787
 20
111.9088907745652222
 10
266.7754731178511065
 20
113.9154071535712802
 10
264.221724999116077
 20
111.6352749047007649
 10
260.6647186908780895
 20
109.9023743955591641
 10
257.2684555414011243
 20
106.9948249681527983
 10
252.2192615541399618
 20
108.7580355668789167
 10
251.3376562547769026
 20
109.7999327388534425
 10
250.6163428280253243
 20
112.2043108280254131
 10
248.6928403566877535
 20
113.7270836178343245
 10
246.2884622675157686
 20
116.5321913885349545
 10
243.4032085605093982
 20
117.5740885605094803
 10
241.7201438980890202
 20
120.2189044585986579
 10
240.1973711082800946
 20
121.8218231847132955
 10
240.6782467261145086
 20
124.0659094012738137
 10
238.9951820636941306
 20
125.5085362547769989
 10
240.9988304713374418
 20
128.6342277707005621
 10
241.7201438980890202
 20
133.3628380127387629
 10
240.9186845350317014
 20
136.9694051464967401
 10
239.155473936305583
 20
139.9348047898088225
 10
235.6290527388533462
 20
138.8929076178343109
 10
232.9040909044584566
 20
137.0495510828024521
 10
231.4614640509552714
 20
135.1260486114648813
 10
232.2629234140125902
 20
133.3628380127387629
 10
231.301172178343819
 20
131.3591896050954517
 10
228.7365022165603818
 20
129.1952493248406881
 10
227.2137294267514562
 20
127.0313090445859103
 10
225.2902269554138854
 20
125.8291199999999179
 10
221.7638057579616486
 20
124.8673687643311325
 10
218.7984061146495378
 20
123.5850337834394139
 10
218.2373845605094118
 20
121.5813853757961027
 10
219.9204492229297898
 20
119.4975910318470653
 10
221.843951694267389
 20
117.4939426242037541
 10
223.1262866751590934
 20
113.9675214267515173
 10
222.0042435668788414
 20
110.6815380382164875
 10
220.241032968152723
 20
108.4374518216559835
 10
217.8366548789807666
 20
106.4338034140126723
 10
214.5506714904457226
 20
105.7926359235668201
 10
215.2719849171973294
 20
103.1478200254776425
 10
214.2300877452227894
 20
100.9838797452228647
 10
213.2683365095540182
 20
98.5795016560508941
 10
211.1043962292992262
 20
96.6559991847133091
 10
207.8985587770699226
 20
95.8545398216559903
 10
206.7765156687896706
 20
94.6523507770700121
 10
203.5706782165603954
 20
93.3700157961782793
 10
203.7309700891718478
 20
90.8854917707005825
 10
203.1699485350317218
 20
89.2825730445859307
 10
201.4868838726113438
 20
88.2406758726114049
 10
198.7619220382164258
 20
88.4811136815286119
 10
196.1171061401272766
 20
88.9619892993629975
 10
194.3538955414011582
 20
89.2024271082802045
 10
192.5906849426750398
 20
89.6031567898088639
 10
190.667182471337469
 20
90.5649080254776493
 10
189.2245556178342838
 20
91.6068051974521751
 10
187.7017828280253582
 20
93.1295779872610865
 10
185.2172588025476614
 20
92.4884104968152343
 10
184.3356535031846022
 20
92.7288483057324271
 10
182.0915672866240982
 20
94.7324967133757383
 10
181.4554089171974169
 20
91.4164585987260949
 10
177.6985681528662155
 20
91.4164585987260949
 10
175.319235668789787
 20
88.5362140127388386
 10
173.4408152866241721
 20
86.9082496815286447
 10
169.3082904458598534
 20
87.6596178343948935
 10
164.1739414012738507
 20
88.0353019108280108
 10
163.1721171974521951
 20
85.5307414012738718
 10
160.4171006369426493
 20
85.7811974522292786
 10
158.7891363057324554
 20
83.6523210191082711
 10
156.7854878980891442
 20
83.9027770700636779
 10
155.5332076433120676
 20
84.9046012738853335
 10
153.5295592356687564
 20
84.9046012738853335
 10
153.2791031847133354
 20
83.6523210191082711
 10
151.1502267515923279
 20
83.7775490445859674
 10
150.5240866242037896
 20
86.6577936305732379
 10
148.5204382165604784
 20
88.6614420382165491
 10
147.6438420382165191
 20
91.4164585987260949
 10
146.1411057324840499
 20
94.5471592356687722
 10
145.2645095541400906
 20
97.6778598726114495
 10
142.1338089171974275
 20
99.6815082802547607
 10
141.0067566878980756
 20
102.0608407643311892
 10
138.2517401273885014
 20
100.6833324840764163
 10
136.3733197452229149
 20
101.8103847133757824
 10
138.6274242038216187
 20
104.5654012738853282
 10
138.2517401273885014
 20
109.0736101910827784
 10
133.4930751592356444
 20
108.9483821656050822
 10
131.7398828025477542
 20
109.5745222929936062
 10
131.8651108280254505
 20
112.4547668789808768
 10
133.1173910828025271
 20
114.207959235668767
 10
133.3678471337579481
 20
118.2152560509553894
 10
134.995811464968142
 20
120.3441324840764111
 10
135.8724076433120729
 20
122.7234649681528396
 10
135.4967235668789556
 20
125.1027974522292823
 10
132.8669350318471061
 20
126.8559898089171725
 10
130.3623745222929813
 20
128.2334980891719454
 10
130.9885146496814912
 20
130.8632866242037949
 10
132.4912509554139888
 20
131.4894267515923332
 10
133.8687592356687617
 20
133.1173910828025271
 10
132.1155668789808715
 20
133.7435312101910654
 10
133.5245444938577748
 20
133.9623298856409122
 10
137.7564699477614738
 20
134.0352941176047921
 10
140.3102180664964465
 20
134.9838291331349183
 10
138.4861122674000455
 20
138.3401838034723141
 10
133.5245444938577748
 20
140.091325370604892
 10
130.2411540554842304
 20
141.4046815459543041
 10
125.571443209797394
 20
143.8125012007615737
 10
121.4124819878575749
 20
145.2717858400387172
 10
113.8242018636164659
 20
145.1258573761109858
 10
111.3434179768453447
 20
142.1343238655928758
 10
107.4763136827609316
 20
140.8939319222073152
 10
103.5362451567126811
 20
141.4046815459543041
 10
101.201389733869263
 20
137.8294341797253253
 10
97.4072496717487155
 20
134.7649364372433354
 10
95.1453584808691488
 20
131.4085817669059395
 10
95.291286944796866
 20
128.490012488351681
 10
91.8619680424956044
 20
125.3525505139058254
 10
90.402683403218461
 20
121.8502673796407123
 10
90.402683403218461
 20
118.4939127093033022
 10
91.5701111146401701
 20
117.9101988535924477
 10
93.6131096096281681
 20
119.9531973485804315
 10
94.2697876973028741
 20
122.725838163206987
 10
96.9264917197452007
 20
126.3550777070063447
 10
97.1769477707006217
 20
122.5982369426751433
 10
100.4328764331209953
 20
121.972096815286605
 10
100.5581044585987058
 20
119.467536305732466
 10
98.5544560509553946
 20
116.8377477707006165
 10
95.1732993630573105
 20
115.5854675159235398
 10
92.29305477707004
 20
113.7070471337579392
 10
91.2912305732483844
 20
111.8286267515923385
 10
91.0407745222929776
 20
110.8268025477706828
 10
86.9082496815286447
 20
110.9520305732483934
 10
84.5289171974522162
 20
111.7033987261146279
 10
81.0225324840764216
 20
110.2006624203821445
 10
77.1404636942674955
 20
109.6997503184713167
 10
76.5143235668789714
 20
111.3277146496815107
 10
77.7666038216560338
 20
114.5836433121018842
 10
77.8918318471337443
 20
116.8377477707006165
 10
79.5197961783439382
 20
118.7161681528662172
 10
81.2729885350318284
 20
119.217080254777045
 10
83.5270929936305606
 20
119.7179923566878728
 10
87.1587057324840657
 20
121.2207286624203562
 10
86.0316535031846996
 20
123.8505171974522057
 10
87.534389808917183
 20
126.2298496815286342
 10
89.2875821656050732
 20
129.3605503184713257
 10
91.4164585987260949
 20
131.3641987261146369
 10
88.0353019108280108
 20
133.8687592356687617
 10
85.1550573248407545
 20
137.1246878980891495
 10
84.9046012738853335
 20
141.3824407643311929
 10
88.0353019108280108
 20
144.262685350318435
 10
90.4146343949044393
 20
147.5186140127388228
 10
88.0353019108280108
 20
150.7745426751592106
 10
89.9137222929936115
 20
154.0304713375795984
 10
93.2948789808916956
 20
155.6584356687897923
 10
95.7994394904458488
 20
159.0395923566878764
 10
99.9319643312101675
 20
162.9216611464967741
 10
105.066313375796156
 20
165.5514496815286236
 10
108.9483821656050822
 20
169.1830624203821287
 10
110.4511184713375656
 20
170.8110267515923226
 10
109.1988382165604889
 20
172.9399031847133301
 10
109.0736101910827784
 20
174.6930955414012487
 10
110.075434394904434
 20
177.9490242038216365
 10
111.3277146496815107
 20
179.3265324840764094
 10
110.2006624203821445
 20
180.7040407643311823
 10
109.0736101910827784
 20
184.2104254777069627
 10
111.3277146496815107
 20
186.5897579617833912
 10
113.7070471337579392
 20
188.8438624203821234
 10
116.4620636942674992
 20
187.7168101910827716
 10
118.9666242038216382
 20
189.7204585987260828
 10
122.7234649681528396
 20
191.8493350318470902
 10
125.7289375796178064
 20
195.2304917197451744
 10
127.4821299363057108
 20
199.3630165605095215
 10
130.8632866242037949
 20
200.2396127388534524
 10
133.1173910828025271
 20
202.6189452229299093
 10
135.9976356687897976
 20
204.2469095541401032
 10
136.3733197452229149
 20
206.751470063694228
 10
140.6310726114649299
 20
211.0092229299362714
 10
142.8851770700636621
 20
212.6371872611464653
 10
143.2608611464967794
 20
218.2724484076432816
 10
148.5204382165604784
 20
221.6536050955413657
 10
150.1484025477706723
 20
223.5320254777069522
 10
147.7690700636942438
 20
225.0347617834394498
 10
144.763597452229277
 20
224.5338496815286078
 10
143.3860891719745041
 20
223.4067974522292559
 10
137.5003719745222668
 20
224.5338496815286078
 10
138.6274242038216187
 20
226.78795414012734
 10
142.0085808917197312
 20
229.1672866242037685
 10
143.1356331210190831
 20
231.9223031847133427
 10
146.5167898089171672
 20
233.5502675159235366
 10
146.0158777070063536
 20
237.9332484076432763
 10
150.6747611464967349
 20
238.2384554140126056
 10
145.7842356687897336
 20
238.1608280254775707
  0
LWPOLYLINE
  5
47
  8
contour
 62
7
420
16777215
370
35
  6
CONTINUOUS
100
AcDbEntity
100
AcDbPolyline
 90
16
 70
0
 10
132.1155668789808715
 20
133.7435312101910654
 10
129.8614624203821393
 20
134.745355414012721
 10
124.3514292993630335
 20
135.4967235668789556
 10
119.8432203821655833
 20
135.4967235668789556
 10
116.8377477707006165
 20
134.8705834394904173
 10
112.579994904458573
 20
134.244443312101879
 10
111.953854777070049
 20
132.1155668789808715
 10
110.325890445859855
 20
130.8632866242037949
 10
107.4456458598725845
 20
130.2371464968152566
 10
106.1933656050955221
 20
128.7344101910827874
 10
104.0644891719745004
 20
128.98486624203818
 10
102.9374369426751343
 20
130.1119184713375603
 10
101.5599286624203614
 20
131.2389707006369122
 10
99.5562802547770502
 20
129.9866904458598356
 10
98.0535439490445668
 20
128.4839541401273664
 10
96.9264917197452007
 20
126.3550777070063447
  0
LWPOLYLINE
  5
48
  8
contour
 62
7
420
16777215
370
35
  6
CONTINUOUS
100
AcDbEntity
100
AcDbPolyline
 90
16
 70
0
 10
136.0782926125927759
 20
178.0327259918103664
 10
132.3571167824360657
 20
174.3115501616536847
 10
127.6144417047853921
 20
172.9252297543404211
 10
125.8633001376528284
 20
171.3929808830994261
 10
123.7473374107009789
 20
171.4659451150632776
 10
126.5929424572914002
 20
174.895264017364525
 10
131.335617534942088
 20
179.5649748630513614
 10
136.5160780043759132
 20
185.1832207242683239
 10
138.9968618911470344
 20
186.4965768996177644
 10
140.091325370604892
 20
189.1232892503165886
 10
143.6665727368338707
 20
190.8744308174491664
 10
147.2418201030628495
 20
190.8014665854853149
 10
148.9199974382315474
 20
188.7584680904973027
 10
145.0528931441471343
 20
184.9643280283767695
 10
139.5076115148940232
 20
180.8053668064369219
 10
136.0782926125927759
 20
178.0327259918103664
  0
LWPOLYLINE
  5
49
  8
contour
 62
7
420
16777215
370
35
  6
CONTINUOUS
100
AcDbEntity
100
AcDbPolyline
 90
8
 70
0
 10
155.1219571551593788
 20
194.4496781836781452
 10
158.3323833615690717
 20
195.8359985909914087
 10
159.0620256812076434
 20
198.9004963334733986
 10
161.6157737999426161
 20
201.4542444522083713
 10
158.4053475935329232
 20
200.9434948284613824
 10
155.7056710108702191
 20
199.192353261328833
 10
152.4952448044605262
 20
195.9819270549191401
 10
155.1219571551593788
 20
194.4496781836781452
  0
LWPOLYLINE
  5
4A
  8
contour
 62
7
420
16777215
370
35
  6
CONTINUOUS
100
AcDbEntity
100
AcDbPolyline
 90
6
 70
0
 10
152.7871017323159606
 20
183.1402222292803401
 10
154.8301002273039444
 20
186.7154695955093189
 10
150.9629959332195313
 20
185.9858272758707471
 10
147.9714624227014212
 20
183.4320791571357745
 10
149.2848185980508333
 20
181.4620448941116422
 10
152.7871017323159606
 20
183.1402222292803401
  0
LWPOLYLINE
  5
4B
  8
contour
 62
7
420
16777215
370
35
  6
CONTINUOUS
100
AcDbEntity
100
AcDbPolyline
 90
11
 70
0
 10
200.6516379006059481
 20
161.4698453360149131
 10
196.7115693745576834
 20
160.7402030163763413
 10
194.814499343497431
 20
161.9805949597619019
 10
191.8959300649431441
 20
164.680271542424606
 10
188.1747542347864623
 20
166.4314131095571554
 10
189.1232892503165886
 20
163.5858080629667484
 10
191.7500016010154411
 20
162.1265234236896049
 10
194.8874635754612825
 20
160.0835249287016211
 10
197.3682474622324037
 20
158.9890614492437635
 10
199.9949598129312562
 20
160.2294533926293525
 10
200.6516379006059481
 20
161.4698453360149131
  0
LWPOLYLINE
  5
4C
  8
contour
 62
7
420
16777215
370
35
  6
CONTINUOUS
100
AcDbEntity
100
AcDbPolyline
 90
9
 70
0
 10
208.09398956091934
 20
163.002094207255908
 10
204.8105991225457956
 20
162.1994876556534564
 10
206.415812225750642
 20
163.8776649908221827
 10
209.7721668960880379
 20
166.2854846456294524
 10
211.1584873034013299
 20
167.671805052942716
 10
214.3689135098110228
 20
167.525876589015013
 10
214.8066989015941601
 20
166.3584488775933039
 10
211.2314515353651814
 20
164.0965576867137372
 10
208.09398956091934
 20
163.002094207255908
  0
LWPOLYLINE
  5
4D
  8
contour
 62
7
420
16777215
370
35
  6
CONTINUOUS
100
AcDbEntity
100
AcDbPolyline
 90
38
 70
0
 10
245.8894617181971114
 20
187.6640046110394735
 10
247.129853661582672
 20
187.882897306931028
 10
248.9539594606791013
 20
188.6125396265695997
 10
249.9754587081731074
 20
189.1232892503165886
 10
249.829530244245376
 20
184.6724711005213351
 10
249.829530244245376
 20
182.5565083735694998
 10
251.1428864195947881
 20
181.3161164301839392
 10
252.5292068269080801
 20
182.6294726055333513
 10
251.6536360433418054
 20
186.350648435690033
 10
251.6536360433418054
 20
190.2907169617382976
 10
249.5376733163899416
 20
191.1662877453045724
 10
245.3787120944501225
 20
190.8744308174491664
 10
241.8764289601849953
 20
191.8959300649431441
 10
241.0008581766187206
 20
193.1363220083287047
 10
239.3226808414500226
 20
194.0848570238588593
 10
237.7174677382451762
 20
194.4496781836781452
 10
239.6145377693054286
 20
196.7115693745576834
 10
238.8119312177030054
 20
198.4627109416902613
 10
237.1337538825343074
 20
196.6386051425938319
 10
235.1637196195101751
 20
194.6685708795696996
 10
233.3396138204137742
 20
195.6171058950998543
 10
231.5884722532811963
 20
196.9304620704492663
 10
231.5884722532811963
 20
195.4711774311721229
 10
233.1936853564860428
 20
193.9389285599311279
 10
234.2881488359439004
 20
192.9174293124371502
 10
233.6314707482691801
 20
191.6770373690515896
 10
231.9532934131004822
 20
190.436645425666029
 10
232.1721861089920651
 20
189.19625348228044
 10
233.0477568925583398
 20
188.0288257708587594
 10
234.5800057637993348
 20
188.9043965544250341
 10
236.1122546350403297
 20
190.1447884978105947
 10
236.914861186642753
 20
191.0203592813768694
 10
237.5715392743174448
 20
191.2392519772684523
 10
238.5930385218114509
 20
191.2392519772684523
 10
239.3956450734138741
 20
191.0203592813768694
 10
240.4171443209078518
 20
190.0718242658467432
 10
241.8764289601849953
 20
188.1747542347864623
 10
245.8894617181971114
 20
187.6640046110394735
  0
LWPOLYLINE
  5
4E
  8
contour
 62
7
420
16777215
370
35
  6
CONTINUOUS
100
AcDbEntity
100
AcDbPolyline
 90
16
 70
0
 10
254.4262768579683609
 20
213.3474142623170167
 10
258.4393096159804486
 20
210.3558807517989067
 10
261.6497358223901415
 20
211.0855230714374784
 10
267.0490889877155496
 20
210.3558807517989067
 10
269.2380159466312648
 20
210.8666303755458955
 10
266.6842678278962921
 20
212.6177719426784449
 10
263.6197700854143022
 20
213.0555573344616107
 10
258.8041307757997629
 20
213.2744500303531652
 10
255.1559191776069326
 20
215.4633769892688804
 10
251.507707579414074
 20
217.8711966440761501
 10
248.7350667647875184
 20
220.8627301545942601
 10
247.7865317492573922
 20
224.8757629126063762
 10
246.4002113419441287
 20
225.0216913765341076
 10
246.2542828780163973
 20
220.0601236029918368
 10
250.4132440999562448
 20
215.4633769892688804
 10
254.4262768579683609
 20
213.3474142623170167
  0
LWPOLYLINE
  5
4F
  8
contour
 62
7
420
16777215
370
35
  6
CONTINUOUS
100
AcDbEntity
100
AcDbPolyline
 90
9
 70
0
 10
291.6534001960326918
 20
202.4424628424737875
 10
287.248646870478467
 20
203.0884933302217235
 10
283.7835742543757647
 20
204.2043641726954775
 10
285.897855850641804
 20
204.8503946604434418
 10
289.9502289101517363
 20
204.3805543057176521
 10
294.4137122800466955
 20
204.9678547491248821
 10
295.6470432112018898
 20
204.5567444387398268
 10
295.8232333442240929
 20
203.0884933302217235
 10
291.6534001960326918
 20
202.4424628424737875
  0
LWPOLYLINE
  5
50
  8
contour
 62
7
420
16777215
370
35
  6
CONTINUOUS
100
AcDbEntity
100
AcDbPolyline
 90
32
 70
0
 10
260.7147308025477059
 20
105.5521981146496557
 10
261.0353145477706676
 20
101.3044634904458405
 10
261.7566279745222459
 20
97.6177504203821513
 10
258.7110823949043947
 20
94.2516210955413811
 10
255.3449530700636387
 20
91.7670970700636701
 10
253.9824721528661939
 20
89.8435945987260993
 10
252.4596993630572683
 20
87.1186327643311955
 10
253.1008668535031347
 20
84.0730871847133585
 10
253.7420343439490011
 20
80.7871037961783287
 10
250.5361968917196975
 20
76.7798069808917063
 10
253.7420343439490011
 20
71.5703211210190915
 10
250.1354672101910239
 20
71.4901751847133653
 10
249.1737159745222527
 20
73.3335317197452099
 10
247.6509431847133271
 20
76.4592232356687731
 10
248.2921106751591935
 20
79.7452066242038029
 10
249.6545915923566383
 20
81.0275416050955215
 10
249.2538619108279647
 20
83.5922115668789587
 10
249.1737159745222527
 20
84.8745465477706915
 10
246.0480244585986895
 20
86.4774652738853291
 10
245.7274407133757563
 20
88.5612596178343807
 10
243.5635004331209643
 20
89.6031567898089065
 10
243.8840841783438975
 20
91.4465133248407511
 10
247.4105053757961343
 20
91.2862214522292845
 10
248.3722566114649339
 20
90.0840324076432921
 10
250.1354672101910239
 20
91.2060755159235441
 10
252.0589696815286231
 20
92.4884104968152627
 10
253.5015965350318083
 20
95.0530804585987141
 10
255.7456827515923123
 20
97.5376044840764109
 10
257.1883096050954691
 20
99.7015447643311887
 10
258.3103527133757211
 20
100.4228581910827813
 10
257.9897689681528163
 20
103.4684037707006183
 10
257.2684555414011243
 20
106.9948249681527983
  0
LWPOLYLINE
  5
51
  8
contour
 62
7
420
16777215
370
35
  6
CONTINUOUS
100
AcDbEntity
100
AcDbPolyline
 90
43
 70
0
 10
273.4036624203820338
 20
255.238853503184572
 10
274.4128184713374026
 20
256.7914012738851852
 10
272.7826433121017544
 20
257.8005573248406108
 10
271.0748407643310429
 20
258.8097133757960364
 10
271.0748407643310429
 20
260.2846337579616147
 10
273.1707802547769006
 20
261.060907643311964
 10
276.7416401273883935
 20
260.9056528662418941
 10
279.2257165605093974
 20
258.8097133757960364
 10
282.2531847133756173
 20
256.9466560509552551
 10
285.3582802547769006
 20
255.0059713375794672
 10
287.2989649681526885
 20
255.7046178343947531
 10
285.97929936305718
 20
257.9558121019106807
 10
285.1253980891718243
 20
260.2070063694266082
 10
283.1847133757960364
 20
261.6819267515921865
 10
281.3992834394902616
 20
262.6910828025476121
 10
279.3033439490444039
 20
265.0199044585985462
 10
277.8284235668788256
 20
266.1066878980890351
 10
276.4311305732482538
 20
266.9605891719743909
 10
276.6640127388533301
 20
268.3578821656049627
 10
278.5270700636941115
 20
267.9697452229297596
 10
280.1572452229297596
 20
266.805334394904321
 10
282.9518312101909032
 20
265.3304140127386859
 10
284.4267515923565384
 20
264.0107484076431774
 10
288.6186305732482538
 20
262.5358280254775423
 10
289.550159235668616
 20
260.9056528662418941
 10
290.2488057324839019
 20
258.4992038216558967
 10
292.1118630573246833
 20
256.5585191082801089
 10
294.1301751592354776
 20
255.4717356687896483
 10
297.1576433121017544
 20
254.7730891719743624
 10
300.3403662420380442
 20
254.4625796178342512
 10
303.9888535031845436
 20
253.9191878980890351
 10
307.0939490445858269
 20
253.0652866242036794
 10
309.1122611464966212
 20
250.9693471337578217
 10
310.5871815286622564
 20
248.4076433121017544
 10
311.5963375796176251
 20
247.4761146496813922
 10
313.5370222929934698
 20
247.6313694267514336
 10
316.3316082802546134
 20
245.7683121019106807
 10
319.5143312101909032
 20
244.7591560509552835
 10
321.6102707006367609
 20
243.594745222929788
 10
323.0075636942673327
 20
241.6540605095540002
 10
322.3089171974520468
 20
239.4804936305731076
 10
319.9024681528660494
 20
238.8594745222928566
 10
319.2814490445858269
 20
237.5398089171973197
  0
LWPOLYLINE
  5
52
  8
contour
 62
7
420
16777215
370
35
  6
CONTINUOUS
100
AcDbEntity
100
AcDbPolyline
 90
5
 70
0
 10
279.0681502165604684
 20
101.7051931719744999
 10
280.9115067515922988
 20
101.1441716178343739
 10
284.9989495031846332
 20
101.2243175541401143
 10
286.6018682292993276
 20
99.7015447643311887
 10
285.2393873121018828
 20
98.7397935286624033
  0
ENDSEC
  0
SECTION
  2
OBJECTS
  0
DICTIONARY
  5
C
100
AcDbDictionary
280
0
281
1
  3
ACAD_GROUP
350
D
  3
ACAD_LAYOUT
350
1A
  3
ACAD_MLINESTYLE
350
17
  3
ACAD_PLOTSETTINGS
350
19
  3
ACAD_PLOTSTYLENAME
350
E
  3
AcDbVariableDictionary
350
53
  0
DICTIONARY
  5
D
100
AcDbDictionary
280
0
281
1
  0
ACDBDICTIONARYWDFLT
  5
E
100
AcDbDictionary
281
1
  3
Normal
350
F
100
AcDbDictionaryWithDefault
340
F
  0
ACDBPLACEHOLDER
  5
F
  0
DICTIONARY
  5
17
100
AcDbDictionary
280
0
281
1
  3
Standard
350
18
  0
MLINESTYLE
  5
18
100
AcDbMlineStyle
  2
STANDARD
 70
0
  3

 62
256
 51
90.0
 52
90.0
 71
2
 49
0.5
 62
256
  6
BYLAYER
 49
-0.5
 62
256
  6
BYLAYER
  0
DICTIONARY
  5
19
100
AcDbDictionary
280
0
281
1
  0
DICTIONARY
  5
1A
100
AcDbDictionary
281
1
  3
Layout1
350
1E
  3
Layout2
350
26
  3
Model
350
22
  0
LAYOUT
  5
1E
100
AcDbPlotSettings
  1

  2
C:\Program Files\AutoCAD 2002\plotters\DWF ePlot (optimized for plotting).pc3
  4

  6

 40
0.0
 41
0.0
 42
0.0
 43
0.0
 44
0.0
 45
0.0
 46
0.0
 47
0.0
 48
0.0
 49
0.0
140
0.0
141
0.0
142
1.0
143
1.0
 70
688
 72
0
 73
0
 74
5
  7

 75
16
147
1.0
148
0.0
149
0.0
100
AcDbLayout
  1
Layout1
 70
1
 71
1
 10
0.0
 20
0.0
 11
420.0
 21
297.0
 12
0.0
 22
0.0
 32
0.0
 14
100000000000000000000.0
 24
100000000000000000000.0
 34
100000000000000000000.0
 15
-100000000000000000000.0
 25
-100000000000000000000.0
 35
-100000000000000000000.0
146
0.0
 13
0.0
 23
0.0
 33
0.0
 16
1.0
 26
0.0
 36
0.0
 17
0.0
 27
1.0
 37
0.0
 76
0
330
1B
  0
LAYOUT
  5
22
100
AcDbPlotSettings
  1

  2
C:\Program Files\AutoCAD 2002\plotters\DWF ePlot (optimized for plotting).pc3
  4

  6

 40
0.0
 41
0.0
 42
0.0
 43
0.0
 44
0.0
 45
0.0
 46
0.0
 47
0.0
 48
0.0
 49
0.0
140
0.0
141
0.0
142
1.0
143
1.0
 70
1712
 72
0
 73
0
 74
0
  7

 75
0
147
1.0
148
0.0
149
0.0
100
AcDbLayout
  1
Model
 70
1
 71
0
 10
0.0
 20
0.0
 11
12.0
 21
9.0
 12
0.0
 22
0.0
 32
0.0
 14
0.0
 24
0.0
 34
0.0
 15
0.0
 25
0.0
 35
0.0
146
0.0
 13
0.0
 23
0.0
 33
0.0
 16
1.0
 26
0.0
 36
0.0
 17
0.0
 27
1.0
 37
0.0
 76
0
330
1F
  0
LAYOUT
  5
26
100
AcDbPlotSettings
  1

  2
C:\Program Files\AutoCAD 2002\plotters\DWF ePlot (optimized for plotting).pc3
  4

  6

 40
0.0
 41
0.0
 42
0.0
 43
0.0
 44
0.0
 45
0.0
 46
0.0
 47
0.0
 48
0.0
 49
0.0
140
0.0
141
0.0
142
1.0
143
1.0
 70
688
 72
0
 73
0
 74
5
  7

 75
16
147
1.0
148
0.0
149
0.0
100
AcDbLayout
  1
Layout2
 70
1
 71
2
 10
0.0
 20
0.0
 11
12.0
 21
9.0
 12
0.0
 22
0.0
 32
0.0
 14
0.0
 24
0.0
 34
0.0
 15
0.0
 25
0.0
 35
0.0
146
0.0
 13
0.0
 23
0.0
 33
0.0
 16
1.0
 26
0.0
 36
0.0
 17
0.0
 27
1.0
 37
0.0
 76
0
330
23
  0
DICTIONARY
  5
53
100
AcDbDictionary
281
1
  3
DIMASSOC
350
55
  3
HIDETEXT
350
54
  0
DICTIONARYVAR
  5
54
100
DictionaryVariables
280
0
  1
2
  0
DICTIONARYVAR
  5
55
100
DictionaryVariables
280
0
  1
1
  0
IMAGEDEF
  5
45
100
AcDbRasterImageDef
 90
0
  1
/home/andrew/data/RibbonSoft/projects/QCad2/qcad/data/swiss-map.png
 10
300.0
 20
202.0
 11
1.0
 21
1.0
280
1
281
0
  0
ENDSEC
  0
EOF
