<?xml version="1.0" encoding="utf-8"?>
<!-- Generator: Adobe Illustrator 12.0.1, SVG Export Plug-In . SVG Version: 6.00 Build 51448)  -->
<!DOCTYPE svg PUBLIC "-//W3C//DTD SVG 1.1 Tiny//EN" "http://www.w3.org/Graphics/SVG/1.1/DTD/svg11-tiny.dtd" [
	<!ENTITY ns_svg "http://www.w3.org/2000/svg">
	<!ENTITY ns_xlink "http://www.w3.org/1999/xlink">
]>
<svg  version="1.1" baseProfile="tiny" id="Layer_1" xmlns="&ns_svg;" xmlns:xlink="&ns_xlink;" width="49.847" height="47.386"
	 viewBox="0 0 49.847 47.386" xml:space="preserve">
<g>
	<path d="M31.181,41.716c-12.524,0-22.677-10.154-22.677-22.677c0-4.408,1.262-8.519,3.438-12C4.877,10.495,0,17.731,0,26.125
		c0,11.741,9.518,21.26,21.26,21.26c5.888,0,11.215-2.395,15.065-6.262C34.671,41.507,32.952,41.716,31.181,41.716z"/>
</g>
<g>
	<path d="M25.511,17.622c0-6.741,2.482-12.898,6.576-17.622C21.775,2.729,14.173,12.121,14.173,23.291
		c0,13.307,10.788,24.096,24.094,24.096c4.197,0,8.144-1.075,11.58-2.963C36.192,43.118,25.511,31.619,25.511,17.622z"/>
</g>
</svg>
